<svg xmlns="http://www.w3.org/2000/svg" version="1.1" xmlns:xlink="http://www.w3.org/1999/xlink" xmlns:svgjs="http://svgjs.dev/svgjs" viewBox="0 0 10.864877287309227 10.864877287309227"><g transform="matrix(1,0,0,1,3.475081984761508,3.475081984761508)"><g><path d=" M -2.026751320137783 1.0215628185995027 Q -2.018340850221995 0.9979987782881381 -2.0047111951900587 0.9577311423541723 Q -1.9910815401581223 0.9174635064202065 -1.9785554958793674 0.8773748769259637 Q -1.9642400167036478 0.8315593003611148 -1.9517737461548448 0.7883089581820748 Q -1.939307475606042 0.7450586160030347 -1.9336409317656529 0.7269232836127819 Q -1.8966592772283768 0.6085663774869223 -1.8363199576833744 0.5629876925909527 Q -1.775980638138372 0.5174090076949831 -1.7101207468264017 0.5379875090100803 Q -1.6767135555811994 0.5484258792423758 -1.64861489529694 0.5792068033712872 Q -1.6205162350126807 0.6099877275001983 -1.606913004594262 0.6603360355371464 Q -1.593309774175843 0.7106843435740944 -1.6017781293207878 0.7813758350079232 L -1.5998691469639192 0.7819723133069114 Q -1.5651532286624275 0.6943378165805414 -1.522978813622521 0.6498932588029944 Q -1.4808043985826147 0.6054487010254473 -1.4373759942142494 0.593874000423801 Q -1.3939475898458842 0.5822992998221548 -1.3548134515300756 0.5945271049514154 Q -1.2650912807572465 0.6225615850038665 -1.2392872993233497 0.7076286440934995 Q -1.213483317889453 0.7926957031831325 -1.2519561681741997 0.9158250652011639 Q -1.2591139077620597 0.9387328534835884 -1.2741155258316956 0.9817148433781102 Q -1.2891171439013314 1.024696833272632 -1.3079062103194636 1.0848297775139963 Q -1.3210287328972066 1.1268273893651077 -1.3332266511614914 1.1675423840233148 Q -1.345424569425776 1.2082573786815218 -1.3509715658062613 1.232716136441369 L -1.3700613893749485 1.2267513534514858 Q -1.362426718948004 1.1956111574425983 -1.3633818396267035 1.1785498636906837 Q -1.364336960305403 1.161488569938769 -1.3798774861950034 1.150870563766485 Q -1.395418012084604 1.1402525575942013 -1.4297796945082406 1.1295159482124115 L -1.9032073190116796 0.9815893300633074 Q -1.9385234926137507 0.9705544815320235 -1.9568674035585696 0.9705849978972646 Q -1.9752113145033887 0.9706155142625057 -1.9863364531298657 0.9844260642349605 Q -1.9974615917563425 0.9982366142074153 -2.0076614965690958 1.027527601589386 L -2.026751320137783 1.0215628185995027 M -1.9193827083188242 0.7449982127728176 Q -1.9310140351490965 0.7822233687317575 -1.9182174353348955 0.7982700828251532 Q -1.9054208355206943 0.814316796918549 -1.8557872942421079 0.8298252326922454 L -1.382359669738669 0.9777518508413494 Q -1.3327261284600826 0.9932602866150457 -1.314054406250926 0.9854746081125587 Q -1.2953826840417695 0.9776889296100717 -1.2825584006135207 0.9366458089373946 Q -1.261085181849941 0.8679224440901211 -1.2945235189606497 0.822377108310586 Q -1.3279618560713582 0.7768317725310507 -1.408139115059844 0.7517796839735412 Q -1.481634935799289 0.7288152694624908 -1.533205772549057 0.7530371355534586 Q -1.5847766092988251 0.7772590016444264 -1.6113198936038056 0.8622087165250838 L -1.6366702213108093 0.9433404666920038 Q -1.6366702213108093 0.9433404666920038 -1.6447833963275011 0.9408054339213034 Q -1.6528965713441932 0.938270401150603 -1.6528965713441932 0.938270401150603 L -1.6272480044876954 0.8561841598052486 Q -1.6132307644614698 0.8113230744188341 -1.6272508372388885 0.7807504140943566 Q -1.6412709100163076 0.7501777537698793 -1.6740819377126541 0.7294488738795046 Q -1.7068929654090008 0.70871999398913 -1.747936086081678 0.6958957105608811 Q -1.81856843328582 0.6738260134983132 -1.861221352915474 0.6845953424962723 Q -1.9038742725451279 0.6953646714942313 -1.9193827083188242 0.7449982127728176 M -1.5937526398753707 -0.06000085888770834 L -0.9283940494151719 0.030679602628638003 Q -0.8901182341316084 0.03587209378207512 -0.8698303590840543 0.02710270805359727 Q -0.8495424840365002 0.018333322325119306 -0.8418854399272704 0.0065702582893628625 L -0.8243889992562226 0.016259146968902072 Q -0.840671976342636 0.04153491910751994 -0.8607293869354793 0.07672298924940324 Q -0.8807867975283223 0.1119110593912867 -0.9006490193213778 0.14777876276693475 Q -0.9229334632843179 0.18802057631034474 -0.9423582740605971 0.22413050190298128 Q -0.9617830848368764 0.2602404274956178 -0.9716601071852187 0.28220504516882916 L -0.9891565478562665 0.27251615648928995 Q -0.9661995257905462 0.22693134391016406 -0.9732192674519193 0.20761235773056386 Q -0.9802390091132924 0.18829337155096365 -1.0345438215040037 0.18108314608918652 L -1.5236916208819493 0.1045362299938063 L -1.537716993942726 0.07619387810646228 L -1.264923022620477 0.4010068230613023 Q -1.213750636288955 0.4613507281150644 -1.1802651767969754 0.47932220558941274 Q -1.146779717304996 0.49729368306376104 -1.1233429534365917 0.4828379541171926 Q -1.0999061895681874 0.4683822251706242 -1.0787787681420042 0.43435823269648244 L -1.0612823274709564 0.44404712137602165 Q -1.079018637859301 0.47194735961529666 -1.0939893818953859 0.49794979840487996 Q -1.108960125931471 0.5239522371944632 -1.1239779033847568 0.5510717202345874 Q -1.1346356809322498 0.57031780497274 -1.1436449363780243 0.5876190568440001 Q -1.152654191823799 0.6049203087152603 -1.1581712142663485 0.6190115280865001 L -1.1756676549373963 0.6093226394069607 Q -1.1689936099580898 0.5890135989664527 -1.1784567391823018 0.55862529224683 Q -1.1879198684065135 0.5282369855272073 -1.2258617471383788 0.48322127895387423 L -1.627179305819781 0.0003618614274067955 Q -1.6185533728425971 -0.01315084667545463 -1.6095911508140235 -0.02933505429617378 Q -1.6006289287854498 -0.04551926191689304 -1.5937526398753707 -0.06000085888770834 M -1.1906666313378742 0.08319714990190175 L -1.1731701906668262 0.09288603858144096 L -1.3175346319919607 0.35358300458005376 L -1.3301866283232389 0.33514589556499064 L -1.1906666313378742 0.08319714990190175 M -0.8981261564117482 -0.9783276754987404 L -0.8830648554331422 -0.9651687540827643 Q -0.9011068695029827 -0.9384388882337993 -0.902220693524135 -0.9181655215659292 Q -0.9033345175452872 -0.8978921548980592 -0.8866204646135623 -0.8759857532173745 Q -0.8699064116818375 -0.85407935153669 -0.8330062242842524 -0.8218399940675483 L -0.4127959269811412 -0.4547060865618115 Q -0.4214443448796572 -0.4463272520454466 -0.4296686707646424 -0.43691393893381775 Q -0.4378929966496275 -0.42750062582218895 -0.44635117659188056 -0.41629976906636584 L -1.1460855482302335 -0.4513398767699589 L -0.8569085694409956 -0.19868858558321534 Q -0.8154899917498287 -0.1625015516892807 -0.7893268963815918 -0.14761053289429762 Q -0.7631638010133549 -0.13271951409931454 -0.7402625934503504 -0.13993302171740069 Q -0.717361385887346 -0.14714652933548683 -0.6846464335275467 -0.17699166113442627 L -0.6695851325489406 -0.16383273971845005 Q -0.6835922379919785 -0.15084039593037185 -0.7043650987112069 -0.12782435244893173 Q -0.7251379594304352 -0.10480830896749163 -0.7429025033420031 -0.08447555264637335 Q -0.7580352629703758 -0.0671550565209763 -0.7734494361450821 -0.04875252231124952 Q -0.7888636093197884 -0.030349988101522743 -0.7978846163547088 -0.01698505517704021 L -0.8129459173333149 -0.030143976593016437 Q -0.7956569683124045 -0.05753178851278032 -0.7941666117667872 -0.07747618214525095 Q -0.7926762552211699 -0.09742057577772162 -0.8097668406773599 -0.11965595049380562 Q -0.8268574261335498 -0.14189132520988962 -0.8630045484822046 -0.17347273660823254 L -1.2018838205008426 -0.46954846846769766 Q -1.229747227311264 -0.4938924730872537 -1.246544569056938 -0.5012646715571162 Q -1.2633419108026116 -0.5086368700269787 -1.279092943788839 -0.5004879461798208 Q -1.2948439767750664 -0.49233902233266313 -1.31599337001876 -0.4696519518866224 L -1.331054670997366 -0.4828108733025986 Q -1.3197744688156547 -0.49420196801468474 -1.303230698067553 -0.5116175831182133 Q -1.2866869273194512 -0.5290331982217419 -1.2715541676910784 -0.546353694347139 Q -1.2557634619919071 -0.5644272555214663 -1.2420417134832635 -0.5816526326687318 Q -1.2283199649746201 -0.5988780098159974 -1.2172300007491716 -0.6130911267675417 L -0.6033928430102753 -0.5906870249325374 L -0.8391022033254614 -0.7966241450925654 Q -0.8805207810166282 -0.8328111789865 -0.9066838763848653 -0.8477021977814831 Q -0.932846971753102 -0.8625932165764663 -0.9561247118405717 -0.8557086819937795 Q -0.9794024519280413 -0.8488241474110927 -1.0113643392389102 -0.8183210695413545 L -1.0264256402175165 -0.8314799909573307 Q -1.0131715998234088 -0.8451302808162078 -0.9920222065797152 -0.8678173512622485 Q -0.9708728133360218 -0.8905044217082891 -0.9531082694244539 -0.9108371780294074 Q -0.9373175637252824 -0.9289107392037348 -0.9226088961104406 -0.9472657139243958 Q -0.9079002284955988 -0.9656206886450569 -0.8981261564117482 -0.9783276754987404 M -0.18179154982140294 -1.5354096440018632 L -0.17056865095652646 -1.520078416357974 Q -0.19225491372233278 -1.4955283449272754 -0.20930275229283551 -1.4570235244488718 Q -0.22635059086333825 -1.4185187039704683 -0.23086495186893696 -1.356966932714792 L -0.25025134404361304 -1.0651721969870038 L -0.25247710206672735 -1.1664048300715115 L 0.15870856414984208 -1.00762401291139 Q 0.18359087261861096 -0.997334662821854 0.20477088453495307 -0.9954888309704633 Q 0.22595089645129507 -0.9936429991190724 0.2528372599981311 -1.0009315830163301 L 0.2646508377506327 -0.9847934486543414 Q 0.23522774484190234 -0.9657335010236625 0.20023541651981414 -0.9407377622148339 Q 0.16524308819772593 -0.9157420234060052 0.1370013530642457 -0.8950682623391274 Q 0.12005631198415762 -0.8826640056990007 0.0961444498849871 -0.8645401857111987 Q 0.07223258778581665 -0.8464163657233967 0.03629623652849279 -0.8176313234564442 L 0.024482658775991206 -0.8337694578184329 Q 0.056384476442817855 -0.8596011056472599 0.05763173411422484 -0.8722874900140178 Q 0.058878991785631773 -0.8849738743807756 0.03179219099303893 -0.8948887734131608 L -0.22401882172327248 -0.9988634134608915 Q -0.24890113019204135 -1.0091527635504274 -0.26456991129882357 -1.011934723044695 Q -0.2802386924056057 -1.0147166825389626 -0.2917727212990123 -1.0118502950065342 Q -0.30330675019241893 -1.0089839074741058 -0.3184217500058339 -0.9991585942149539 L -0.3308260066459605 -1.0161036352950419 Q -0.2959127899372105 -1.042900413068645 -0.28166012257815676 -1.081837689207997 Q -0.26740745521910314 -1.120774965347349 -0.26208618749540497 -1.182917415490651 L -0.25641689214891894 -1.2750578468455904 Q -0.25233498680426897 -1.3338144468898179 -0.2662871569844376 -1.3638783279976125 Q -0.28023932716460637 -1.3939422091054072 -0.30660622814479677 -1.396948291722508 Q -0.3329731291249871 -1.3999543743396088 -0.3658400767365896 -1.377134125552705 L -0.37706297560146607 -1.3924653531965943 Q -0.34661674814416193 -1.4135135653206228 -0.31899469420020576 -1.4324944013379635 Q -0.29137264025624965 -1.4514752373553041 -0.2558687446598746 -1.4774651084108075 Q -0.20906815501010734 -1.5117244838930621 -0.18179154982140294 -1.5354096440018632 M -0.46098127428380725 -1.331034748883586 L -0.44916769653130567 -1.3148966145215975 Q -0.4743980326228625 -1.2951879833994955 -0.48387258070194017 -1.2801968880860355 Q -0.49334712878101783 -1.2652057927725753 -0.48704478183807615 -1.2481315307677097 Q -0.4807424348951344 -1.2310572687628443 -0.45888731605300653 -1.2012017201931653 L -0.16591058779096768 -0.8009759880158457 Q -0.14464614783646484 -0.7719273461642661 -0.12957594090966656 -0.7606517591204142 Q -0.11450573398286826 -0.7493761720765623 -0.09805115316752683 -0.7539855939699669 Q -0.08159657235218543 -0.7585950158633716 -0.05459419959775336 -0.7758829268311752 L -0.042780621845251776 -0.7597447924691865 Q -0.06574846100918663 -0.7454102759395083 -0.09912697589507602 -0.7215958949059298 Q -0.13250549078096538 -0.6977815138723513 -0.16639557294114163 -0.672973000592098 Q -0.20512709540991447 -0.6446204139860943 -0.2391252914853279 -0.6191131079029787 Q -0.27312348756074134 -0.5936058018198631 -0.29211479773797705 -0.5772250161930373 L -0.3039283754904786 -0.593363150555026 Q -0.27928871828654683 -0.6138786883952274 -0.26992228412270636 -0.6281709909058253 Q -0.2605558499588659 -0.642463293416423 -0.26675008298657044 -0.6602363482241509 Q -0.27294431601427493 -0.6780094030318786 -0.29420875596877777 -0.7070580448834582 L -0.5871854842308166 -1.1072837770607777 Q -0.6090406030729445 -1.1371393256304567 -0.6238154705559302 -1.148011459315259 Q -0.638590338038916 -1.1588835930000612 -0.6557437116571196 -1.1543822850218937 Q -0.6728970852753233 -1.1498809770437262 -0.698501872424031 -1.1323768382454482 L -0.7103154501765325 -1.1485149726074368 Q -0.6895521033364216 -1.1624750380799644 -0.6546678889295705 -1.1867719840859308 Q -0.6197836745227194 -1.2110689300918973 -0.5810521520539467 -1.239421516697901 Q -0.5471620698937704 -1.2642300299781544 -0.5146695733393186 -1.2892547710888818 Q -0.4821770767848669 -1.3142795121996096 -0.46098127428380725 -1.331034748883586 M 0.6606971971807778 -1.9278690420016282 Q 0.7612085321670985 -1.9615361110642544 0.8502494293473382 -1.9460129467818672 Q 0.939290326527578 -1.9304897824994802 1.0065799284043657 -1.86813307091794 Q 1.0738695302811534 -1.8057763593363996 1.1103951240755119 -1.6967310430776554 Q 1.1459678762926262 -1.5905303872430525 1.1299775340933444 -1.4965872717084383 Q 1.1139871918940631 -1.402644156173824 1.0525833218897669 -1.3325098938728952 Q 0.9911794518854706 -1.2623756315719663 0.8935127773232912 -1.2296614040865845 Q 0.7930014423369705 -1.1959943350239584 0.7039605451567308 -1.2115174993063453 Q 0.614919647976491 -1.2270406635887325 0.5474712391701625 -1.289871485240963 Q 0.4800228303638341 -1.3527023068931934 0.44381485042855706 -1.460799403010557 Q 0.4082420982114428 -1.5670000588451602 0.4247065504814146 -1.661101981309315 Q 0.4411710027513863 -1.7552039037734701 0.5016266526143022 -1.8250205522153176 Q 0.5620823024772179 -1.894837200657165 0.6606971971807778 -1.9278690420016282 M 0.662621366078721 -1.909530624020456 Q 0.6095210381614196 -1.8917442479118987 0.5844625259527956 -1.8358933663979042 Q 0.5594040137441717 -1.7800424848839098 0.5631605554305419 -1.6979867818855285 Q 0.566917097116912 -1.6159310788871473 0.5999489384613752 -1.5173161841835874 Q 0.6336160075240013 -1.4168048491972667 0.6827283090670891 -1.3504687215054816 Q 0.7318406106101771 -1.2841325938136967 0.7865867757711823 -1.2576494406750702 Q 0.8413329409321875 -1.2311662875364437 0.8915886084253479 -1.2479998220677568 Q 0.9446889363426494 -1.2657861981763139 0.9697474485512734 -1.3216370796903085 Q 0.9948059607598972 -1.3774879612043027 0.9908906121439864 -1.4600177742733744 Q 0.9869752635280755 -1.542547587342446 0.9542610360426937 -1.6402142619046254 Q 0.9202763531209863 -1.7416738170323263 0.8713228585074391 -1.8075358346534212 Q 0.8223693638938919 -1.873397852274516 0.7676231987328866 -1.8998810054131425 Q 0.7128770335718815 -1.926364158551769 0.662621366078721 -1.909530624020456 M 1.779287588357446 -2.130626943893272 Q 1.7804038358081429 -2.0854633081712795 1.7836646641063212 -2.043563224653346 Q 1.7869254924044995 -2.0016631411354124 1.7895273398311997 -1.9788107804265453 Q 1.7920160634567388 -1.9569520006180638 1.795272120380342 -1.9371935064115142 Q 1.7985281773039448 -1.9174350122049644 1.8011054914205826 -1.903638003400728 L 1.7782531307117153 -1.9010361559740279 Q 1.7565129225161555 -1.9770648567890077 1.7286265526556295 -2.018677359429464 Q 1.7007401827951036 -2.0602898620699195 1.665305870410132 -2.0753782518383552 Q 1.6298715580251601 -2.090466641606791 1.584166836607426 -2.085262946753391 L 1.5513786668947036 -2.081529861315082 Q 1.5225648207835232 -2.0782492710814173 1.5082267262835447 -2.0715845095620766 Q 1.493888631783566 -2.064919748042736 1.4906175842990517 -2.0494504155311484 Q 1.487346536814537 -2.0339810830195613 1.490853374650524 -2.00318007510761 L 1.5476415228332816 -1.504402463114075 Q 1.5520533510785555 -1.4656528079990394 1.5621513505036964 -1.4476797613010015 Q 1.5722493499288372 -1.4297067146029634 1.5957804534446693 -1.4263470766273503 Q 1.6193115569605019 -1.4229874386517372 1.6641358212790114 -1.4270844288035909 L 1.6666245449045507 -1.4052256489951092 Q 1.6357104131914384 -1.4027123920595077 1.5869118252713867 -1.3981629067030106 Q 1.538113237351335 -1.3936134213465134 1.4844598687305166 -1.3875047360838264 Q 1.4417358900139388 -1.382640412633909 1.401112196899293 -1.3770087558859276 Q 1.3604885037846473 -1.3713770991379464 1.3278134578730858 -1.366650432799252 L 1.3255509818498683 -1.3865220508069624 Q 1.3571193230598835 -1.3921291742448816 1.3723378746590866 -1.3999006404657686 Q 1.3875564262582898 -1.4076721066866558 1.3909848927895145 -1.42617874379998 Q 1.3944133593207393 -1.4446853809133042 1.390340902478948 -1.4804542933271834 L 1.3342314971031557 -1.9732704199184048 Q 1.3300459164602034 -2.0100329132326693 1.3226015549877677 -2.0267983980830313 Q 1.3151571935153321 -2.0435638829333933 1.2980278039514253 -2.0481556160667447 Q 1.2808984143875184 -2.0527473492000965 1.249984282674406 -2.050234092264495 L 1.2477218066511886 -2.0701057102722054 Q 1.301488299073168 -2.075220814634507 1.364197019598617 -2.081354033207256 Q 1.4269057401240661 -2.0874872517800056 1.4825462705456558 -2.0938221846450142 Q 1.5381868009672452 -2.1001571175100233 1.5719685515803532 -2.104003326749493 Q 1.6176732729980876 -2.109207021602893 1.6757411937700604 -2.116321554420997 Q 1.7338091145420331 -2.1234360872391007 1.779287588357446 -2.130626943893272 M 1.6703848694016639 -1.7699925059869095 Q 1.6703848694016639 -1.7699925059869095 1.6715161074132725 -1.760056696983054 Q 1.6726473454248811 -1.750120887979199 1.6726473454248811 -1.750120887979199 L 1.4918156215547154 -1.7295323561679201 Q 1.4918156215547154 -1.7295323561679201 1.4906843835431065 -1.7394681651717754 Q 1.4895531455314979 -1.7494039741756306 1.4895531455314979 -1.7494039741756306 L 1.6703848694016639 -1.7699925059869095 M 1.680292050158067 -1.9039732798668207 Q 1.6827657832226945 -1.8468866733402023 1.6866562877077134 -1.8171358082292168 Q 1.6905467921927324 -1.7873849431182314 1.6933748872217542 -1.7625454206085933 Q 1.6962029822507758 -1.737705898098955 1.7005902771859875 -1.7080115948885501 Q 1.7049775721211993 -1.6783172916781453 1.715399952388911 -1.6221356755608136 L 1.6925475916800439 -1.6195338281341136 Q 1.6826267732371003 -1.6536304168406417 1.6663165074972623 -1.6819672344371162 Q 1.6500062417574242 -1.7103040520335908 1.6230739289263099 -1.7258572036617013 Q 1.5961416160951956 -1.7414103552898117 1.5563983800797745 -1.736885403243377 L 1.5541359040565572 -1.7567570212510875 Q 1.5938791400719783 -1.7612819732975222 1.6152363580556917 -1.7858557243338646 Q 1.6365935760394053 -1.8104294753702073 1.6455630613588177 -1.8421477403464768 Q 1.6545325466782301 -1.8738660053227463 1.6574396894491998 -1.9013714324401207 L 1.680292050158067 -1.9039732798668207 M 3.1740389658669796 -1.9631365817715545 L 3.170166201431608 -1.943515121692648 Q 3.138578227083589 -1.9487304717852978 3.1216224105789676 -1.9454517088079508 Q 3.104666594074347 -1.9421729458306038 3.095882023671697 -1.926069178481288 Q 3.087097453269047 -1.9099654111319722 3.079932839063609 -1.8736657099859952 L 2.9838882810663856 -1.387053500029116 Q 2.976917305082716 -1.3517348718870845 2.978827718612581 -1.3330105475963414 Q 2.980738132142445 -1.3142862233055983 2.9952734708749587 -1.3053015737336289 Q 3.009808809607472 -1.2963169241616594 3.0408158692901854 -1.2881583550571738 L 3.0369431048548137 -1.2685368949782674 Q 3.009860337187882 -1.2759209111956786 2.96826155363109 -1.2846410721228168 Q 2.926662770074298 -1.2933612330499547 2.8834955579007038 -1.301881314807773 Q 2.836404053711328 -1.3111759494526656 2.795102168434741 -1.318818218264974 Q 2.753800283158153 -1.3264604870772823 2.7279051086120374 -1.3295329348353753 L 2.731777873047409 -1.3491543949142817 Q 2.765521631625087 -1.3445328413820399 2.7838522385247417 -1.3470306105247614 Q 2.8021828454243964 -1.3495283796674828 2.811554771439903 -1.366025864407887 Q 2.82092669745541 -1.3825233491482913 2.8278976734390797 -1.417841977290323 L 2.93265595141589 -1.9486024724247417 L 2.9395234624435074 -1.9472470048723614 L 2.5707397897590174 -1.3595339773144053 L 2.5550426216958924 -1.3626321888627029 L 2.414855925449632 -2.046725523281011 L 2.322103217222474 -1.5767915543912019 Q 2.311453115025201 -1.5228325391742092 2.311627225506699 -1.4927290562272106 Q 2.3118013359881977 -1.462625573280212 2.3294928547969693 -1.4463925771846393 Q 2.347184373605741 -1.4301595810890666 2.3893833946704923 -1.4167341343115218 L 2.38551063023512 -1.3971126742326154 Q 2.3672575196036965 -1.4027539464541092 2.3369410755922755 -1.4092472678309085 Q 2.306624631580855 -1.4157405892077075 2.2801356604743312 -1.4209688211954596 Q 2.257570981383589 -1.4254225002961374 2.233928410178017 -1.429579281116611 Q 2.2102858389724447 -1.4337360619370847 2.1942013944657828 -1.4348721274774916 L 2.1980741589011545 -1.454493587556398 Q 2.230436686136248 -1.4532025294795297 2.248457512860596 -1.461877193978576 Q 2.2664783395849444 -1.4705518584776223 2.27719929220528 -1.4964663558663913 Q 2.2879202448256155 -1.5223808532551604 2.2972148794705083 -1.5694723574445357 L 2.384352079266377 -2.0109552092199303 Q 2.391516693471815 -2.0472549103659072 2.389509460831066 -2.0654886981546774 Q 2.3875022281903173 -2.083722485943448 2.372573172066715 -2.0932944911282743 Q 2.3576441159431134 -2.1028664963131005 2.327424491042577 -2.1098503541918725 L 2.3312972554779487 -2.129471814270779 Q 2.3468007853193056 -2.1253925297185363 2.3701528991922247 -2.1197641393921445 Q 2.393505013065144 -2.1141357490657526 2.416069692155886 -2.109682069965075 Q 2.458255831325535 -2.1013556264290254 2.499163999211034 -2.094300713229574 Q 2.5400721670965334 -2.087245800030123 2.5716601414445526 -2.0820304499374727 L 2.6795108938363916 -1.5439624103657899 L 2.6505303896370807 -1.5262386868192623 L 2.949773406302141 -2.0043428773229586 Q 2.966451647369211 -2.0010510275528928 2.9841109614402272 -1.9975655395610579 Q 3.0017702755112428 -1.994080051569223 3.0194295895822583 -1.9905945635773883 Q 3.062596801755853 -1.9820744818195701 3.1044860426452976 -1.97482593039835 Q 3.1463752835347423 -1.96757737897713 3.1740389658669796 -1.9631365817715545 M 3.7683090304610394 -1.716436478240987 Q 3.863436599628379 -1.6696738266447293 3.915812521611062 -1.596012352341917 Q 3.9681884435937453 -1.5223508780391048 3.9721622133094456 -1.4306968592824427 Q 3.976135983025146 -1.3390428405257804 3.9254029176141114 -1.2358384022781947 Q 3.8759933234746695 -1.1353262537240245 3.7985517824688584 -1.0797942113822796 Q 3.7211102414630477 -1.024262169040535 3.6281327514347934 -1.0175961096314194 Q 3.535155261406539 -1.0109300502223042 3.4427199819326146 -1.0563692305469696 Q 3.3475924127652745 -1.1031318821432274 3.2952164907825914 -1.1767933564460398 Q 3.242840568799908 -1.2504548307488519 3.239087377629473 -1.3425575644544168 Q 3.235334186459039 -1.4346602981599814 3.285626094779542 -1.536967306509762 Q 3.3350356889189845 -1.6374794550639322 3.4129259448736975 -1.6927909188604118 Q 3.490816200828411 -1.748102382656891 3.58289626095886 -1.7552095991565373 Q 3.6749763210893094 -1.7623168156561833 3.7683090304610394 -1.716436478240987 M 3.7567784832402653 -1.7020473684426183 Q 3.7065224089631803 -1.7267521655123392 3.649426999130386 -1.7046758393681356 Q 3.5923315892975918 -1.6825995132239318 3.537288006445049 -1.6216285858342712 Q 3.4822444235925065 -1.5606576584446104 3.4363640861773104 -1.4673249490728806 Q 3.389601434581053 -1.3721973799055407 3.3778550653684203 -1.2904996271193074 Q 3.3661086961557873 -1.208801874333074 3.3863977203627527 -1.1514707702382707 Q 3.406686744569718 -1.0941396661434672 3.454250529153388 -1.0707583403453385 Q 3.5045066034304733 -1.0460535432756175 3.5616020132632675 -1.0681298694198211 Q 3.618697423096062 -1.0902061955640248 3.6739615844938696 -1.1516258379025883 Q 3.7292257458916778 -1.2130454802411517 3.774664926216343 -1.3054807597150762 Q 3.8218687349031315 -1.401505758780221 3.833394525570499 -1.4827547966175518 Q 3.8449203162378662 -1.5640038344548828 3.824631292030901 -1.621334938549686 Q 3.8043422678239356 -1.6786660426444895 3.7567784832402653 -1.7020473684426183 M 4.178461772219214 -0.5829514733737955 L 4.191365508917509 -0.598231970067983 Q 4.217104677298039 -0.5791140410201296 4.233200195662877 -0.5733752006697497 Q 4.249295714027716 -0.5676363603193698 4.265111213647083 -0.5778402797521074 Q 4.28092671326645 -0.5880441991848449 4.304153439323382 -0.6155490932343822 L 4.6241661094410995 -0.9945054112502301 Q 4.648038022332946 -1.0227743301344767 4.655126655353052 -1.039693292333922 Q 4.662215288373159 -1.0566122545333672 4.6538025930274 -1.0722239987350715 Q 4.645389897681642 -1.0878357429367758 4.622350314640565 -1.1086005596538426 L 4.635254051338861 -1.12388105634803 Q 4.655237535041099 -1.1056969869706221 4.687827428516042 -1.0768673348171212 Q 4.720417321990984 -1.04803768266362 4.753270389883488 -1.0202946487622855 Q 4.788415532280119 -0.9906160543562068 4.820003724920763 -0.9652500123768686 Q 4.851591917561407 -0.9398839703975304 4.871337725264056 -0.9245183243593709 L 4.8584339885657615 -0.9092378276651834 Q 4.833340007020146 -0.9291197815477461 4.816539882820496 -0.9347992028982287 Q 4.799739758620845 -0.9404786242487113 4.78462886483629 -0.9303341238158711 Q 4.7695179710517355 -0.9201896233830309 4.745646058159889 -0.8919207044987841 L 4.425633388042171 -0.5129643864829363 Q 4.40240666198524 -0.4854594924333989 4.394995435547676 -0.4681585178165991 Q 4.387584209110112 -0.45085754319979926 4.395937485455973 -0.435950404832907 Q 4.4042907618018345 -0.4210432664660147 4.427449182842706 -0.3988692380793238 L 4.41454544614441 -0.3835887413851364 Q 4.396735198946505 -0.40124646192742397 4.366114786558233 -0.4277585411588262 Q 4.335494374169961 -0.4542706203902285 4.30034923177333 -0.48394921479630715 Q 4.267496163880827 -0.5116922486976416 4.233938490153512 -0.5393758635990787 Q 4.200380816426197 -0.5670594785005159 4.178461772219214 -0.5829514733737955 M 3.8545152423024414 -0.8565106913776515 L 3.8674189790007363 -0.8717911880718389 Q 3.8931581473812655 -0.8526732590239855 3.909253665746104 -0.8469344186736056 Q 3.9253491841109427 -0.8411955783232258 3.94116468373031 -0.8513994977559634 Q 3.956980183349677 -0.8616034171887008 3.980206909406608 -0.8891083112382382 L 4.3002195795243265 -1.268064629254086 Q 4.324091492416172 -1.2963335481383327 4.331180125436279 -1.313252510337778 Q 4.338268758456386 -1.3301714725372231 4.329856063110627 -1.3457832167389274 Q 4.321443367764868 -1.3613949609406317 4.298403784723792 -1.3821597776576984 L 4.311307521422087 -1.397440274351886 Q 4.3305269802896165 -1.3799013918093928 4.361588824095141 -1.3523621133257213 Q 4.392650667900664 -1.3248228348420497 4.430087884801424 -1.2932086799312266 Q 4.462176927859217 -1.266110832864807 4.494147132917217 -1.2404221974680114 Q 4.526117337975215 -1.2147335620712156 4.547391195347283 -1.1980775423632268 L 4.534487458648988 -1.1827970456690393 Q 4.509393477103373 -1.202678999551602 4.4925933529037225 -1.2083584209020848 Q 4.475793228704072 -1.214037842252567 4.460682334919517 -1.203893341819727 Q 4.4455714411349625 -1.1937488413868869 4.421699528243116 -1.16547992250264 L 4.101686858125398 -0.7865236044867923 Q 4.078460132068467 -0.7590187104372549 4.071048905630903 -0.741717735820455 Q 4.063637679193339 -0.7244167612036552 4.0719909555392 -0.7095096228367629 Q 4.080344231885062 -0.6946024844698706 4.103502652925932 -0.6724284560831797 L 4.090598916227637 -0.6571479593889923 Q 4.071260619360313 -0.6760960536011095 4.040258194554687 -0.7029307262499691 Q 4.00925576974906 -0.7297653988988286 3.9771667266912663 -0.7568632459652483 Q 3.939729509790507 -0.7884774008760713 3.907699885732611 -0.814870642107679 Q 3.8756702616747143 -0.8412638833392866 3.8545152423024414 -0.8565106913776515 M 4.2068700842488305 -1.0118267090865003 L 4.219773820947125 -1.0271072057806876 L 4.521563630657327 -0.7722584059893596 L 4.508659893959031 -0.7569779092951722 L 4.2068700842488305 -1.0118267090865003 M 5.246077463919232 -0.46430063992830417 L 4.892279546684052 0.10644626874492619 Q 4.871948719103618 0.13928918959394104 4.8716952962705875 0.16138977277329852 Q 4.871441873437556 0.18349035595265595 4.879066725459913 0.1952743124884363 L 4.863092051401176 0.2073080063817132 Q 4.8466389779671335 0.18214262590427877 4.822670114684716 0.14949306858800276 Q 4.798701251402299 0.11684351127172676 4.774032178921082 0.08409542945131426 Q 4.746354682966545 0.04735367911621724 4.721286243633859 0.014906439643136649 Q 4.696217804301173 -0.017540799829943998 4.680179904223367 -0.03550703931110166 L 4.696154578282105 -0.047540733204378516 Q 4.728437965115835 -0.008008683743924772 4.748941080889319 -0.006551891521566322 Q 4.769444196662802 -0.0050950992992078725 4.798145921619307 -0.05175569278580172 L 5.067270695392107 -0.4673238053037603 L 5.098868096172416 -0.4685904007121562 L 4.691113476220503 -0.3517307844716817 Q 4.615160010752586 -0.32957066074879027 4.585108972388316 -0.30630727550009573 Q 4.555057934024045 -0.28304389025140125 4.5587154617063295 -0.255751538002954 Q 4.562372989388614 -0.22845918575450672 4.584842909769294 -0.19530646824770337 L 4.568868235710556 -0.18327277435442652 Q 4.550610108192523 -0.21083435594067162 4.532958934204077 -0.23509720937611028 Q 4.515307760215629 -0.25936006281154894 4.49665553468105 -0.28412080760259256 Q 4.483418471398446 -0.3016929490672041 4.471286253001033 -0.3169674139271416 Q 4.4591540346036185 -0.33224187878707906 4.448531296777787 -0.3430195149418047 L 4.464505970836525 -0.3550532088350816 Q 4.4803362842362136 -0.34068653985206226 4.511944222686367 -0.33695314636471907 Q 4.543552161136519 -0.3332197528773758 4.600117893385989 -0.3495390033222125 L 5.2045612199874265 -0.5194132654309497 Q 5.213389441399111 -0.5060318414892956 5.224520608250392 -0.4912552679849631 Q 5.235651775101673 -0.4764786944806306 5.246077463919232 -0.46430063992830417 M 4.951129769906333 -0.15447833957457996 L 4.935155095847596 -0.14244464568130308 L 4.75585305683777 -0.38046728915649664 L 4.777844577843146 -0.3845136460204046 L 4.951129769906333 -0.15447833957457996 M 5.801487985529081 0.5450256200530732 L 5.783335851045731 0.5534220486806734 Q 5.7662711383449015 0.5260579192328336 5.748208911390727 0.5167839795384039 Q 5.730146684436553 0.5075100398439741 5.703332285011442 0.5138533815083133 Q 5.676517885586329 0.5201967231726521 5.632045156102122 0.5407679733102726 L 5.125600604016663 0.7750283320203171 Q 5.121470353564271 0.7637172298989271 5.116222585672021 0.7523721458468335 Q 5.11097481777977 0.7410270617947399 5.104189711016282 0.7287403890877752 L 5.421170908089478 0.10393728354008026 L 5.072649926009162 0.2651487131900033 Q 5.02273155617995 0.2882388919159038 4.998476086405289 0.306069264486619 Q 4.974220616630629 0.32389963705733416 4.971481871921825 0.3477533427950178 Q 4.968743127213021 0.3716070485327014 4.982677236572905 0.413640851552971 L 4.964525102089555 0.42203728018057113 Q 4.95836370834167 0.40395310955862884 4.9458030473309735 0.37560739039374663 Q 4.933242386320277 0.3472616712288644 4.921907207673017 0.32275628967634223 Q 4.912251314751276 0.30188133502048997 4.901721797036072 0.28030868435616024 Q 4.891192279320869 0.2587360336918305 4.882659922970453 0.2450539689679107 L 4.900812057453803 0.23665754034031053 Q 4.918784376878801 0.26360184835677014 4.936392800470891 0.2730856987668899 Q 4.9540012240629805 0.2825695491770096 4.981269426850177 0.2760162967969806 Q 5.008537629637373 0.26946304441695157 5.0521027523974125 0.2493116157107112 L 5.460525778272783 0.06039197158970755 Q 5.49410722706698 0.04485857862864728 5.507681326867321 0.032519866596575964 Q 5.521255426667662 0.02018115456450459 5.5202278167569805 0.0024768043117709693 Q 5.519200206846299 -0.01522754594096265 5.507093349197686 -0.04378317582153479 L 5.525245483681036 -0.05217960444913494 Q 5.5310550198589485 -0.03723807543107516 5.540223127487901 -0.015035692619675356 Q 5.549391235116854 0.007166690191724334 5.5590471280385945 0.028041644847576597 Q 5.569122842391714 0.04982420622759634 5.579266520606242 0.06937173272790115 Q 5.58941019882077 0.08891925922820587 5.597874591309777 0.10483635883184073 L 5.327417077825948 0.6563349838529229 L 5.611497982490372 0.5249308758309804 Q 5.661416352319584 0.50184069710508 5.685671822094244 0.4840103245343648 Q 5.7099272918689055 0.46617995196364964 5.713119839939793 0.442116335510276 Q 5.71631238801068 0.41805271905690233 5.7014706719266295 0.3764387374680128 L 5.71962280640998 0.36804230884041267 Q 5.726691806882032 0.3857066580309749 5.738798664530645 0.4142622879115471 Q 5.7509055221792575 0.4428179177921193 5.762240700826518 0.46732329934464145 Q 5.772316415179638 0.4891058607246612 5.783089825541236 0.5100147973112172 Q 5.793863235902833 0.5309237338977733 5.801487985529081 0.5450256200530732 M 5.940955028830224 1.0536043398192947 L 5.92163263503382 1.0587662288123565 Q 5.912407492955101 1.0281084931877633 5.901869156551994 1.0138451322284752 Q 5.8913308201488865 0.9995817712691871 5.873133253328768 0.9992678256890153 Q 5.854935686508648 0.9989538801088433 5.819189257985301 1.0085033747460077 L 5.339993891834485 1.136518221773941 Q 5.305213583000958 1.1458096219614522 5.289242948057287 1.1557689803492188 Q 5.273272313113615 1.1657283387369857 5.271605106169144 1.1827348204720272 Q 5.269937899224672 1.1997413022070689 5.27626468223393 1.2311733211806213 L 5.256942288437527 1.236335210173683 Q 5.251905977676533 1.2097337896492317 5.241807165085667 1.1699938351417771 Q 5.2317083524948 1.1302538806343227 5.2208683856093705 1.0896768536618746 Q 5.208221757576369 1.042336988860685 5.197027778070855 1.0023720689579736 Q 5.185833798565342 0.962407149055262 5.177191103494721 0.9378042260192432 L 5.196513497291125 0.9326423370261814 Q 5.206704759059664 0.9630419782011214 5.216630988393035 0.9769513265403259 Q 5.2265572177264055 0.9908606748795304 5.2453668916162615 0.9915286330797859 Q 5.264176565506117 0.9921965912800413 5.298956874339644 0.98290519109253 L 5.77815224049046 0.8548903440645969 Q 5.813898669013807 0.8453408494274325 5.829386244112569 0.8355105382644923 Q 5.84487381921133 0.8256802271015522 5.846895038775886 0.8080616382967739 Q 5.848916258340441 0.7904430494919956 5.841881450091015 0.7602352446579165 L 5.861203843887418 0.7550733556648547 Q 5.866948179888579 0.7804505620498328 5.876692979859362 0.8208026236270239 Q 5.886437779830145 0.8611546852042151 5.899084407863146 0.9084945500054046 Q 5.909924374748576 0.9490715769778528 5.921472366874173 0.9884243898108276 Q 5.93302035899977 1.0277772026438026 5.940955028830224 1.0536043398192947" fill="#212245" fill-rule="nonzero"></path></g><g><path d=" M -1.2199582919937706 3.1543829712653855 Q -1.2119432808611257 3.173819009867518 -1.1984061734817846 3.2050239249258894 Q -1.1848690661024435 3.236228839984261 -1.170851437168522 3.26610368021933 Q -1.150886935353543 3.308652695099579 -1.1317162418870674 3.347155740589702 Q -1.112545548420592 3.385658786079824 -1.1048995690020895 3.4019541534807707 Q -1.0602980223941576 3.497010463319626 -1.0776179810864361 3.56368143924542 Q -1.094937939778715 3.6303524151712137 -1.1574035148156772 3.6596620029421403 Q -1.189088951428629 3.674529185144784 -1.2255757019564066 3.6756323786562346 Q -1.2620624524841846 3.6767355721676855 -1.3011881699311774 3.65808944028308 Q -1.3403138873781701 3.639443308398475 -1.3794914481144054 3.5959678126018937 L -1.3813020444922883 3.596817365870616 Q -1.356797672267164 3.6725836891406054 -1.362790812233979 3.724550815993436 Q -1.3687839522007939 3.7765179428462665 -1.394634005773126 3.8085300457185793 Q -1.4204840593454582 3.8405421485908926 -1.4576012850920588 3.857957990599704 Q -1.5092032818617231 3.8821702587582956 -1.5606898871599735 3.874847043968178 Q -1.6121764924582236 3.8675238291780607 -1.6577468854372683 3.829257142834252 Q -1.7033172784163133 3.7909904564904435 -1.7351755259934074 3.723093092319832 Q -1.744520611949355 3.70317653216312 -1.7618528365778379 3.6627062468981526 Q -1.779185061206321 3.622235961633186 -1.8055212125367188 3.566107473918814 Q -1.8203883947393626 3.534422037305862 -1.8352834494021162 3.503854287199032 Q -1.8501785040648695 3.4732865370922026 -1.8609094097643388 3.455124828393154 L -1.8428034459855094 3.446629295705929 Q -1.8265504440393436 3.476559880861217 -1.8136850638043729 3.489853939361525 Q -1.800819683569402 3.5031479978618334 -1.7819756563622877 3.50093380757698 Q -1.7631316291551735 3.498719617292126 -1.7305408943532803 3.483427658455121 L -1.281512992638306 3.272738447811938 Q -1.248016959647471 3.257021712340572 -1.2347229011471628 3.244156332105601 Q -1.2214288426468545 3.2312909518706303 -1.2229779955200568 3.212687185440806 Q -1.2245271483932592 3.194083419010982 -1.2380642557726003 3.1628785039526104 L -1.2199582919937706 3.1543829712653855 M -1.132719650451009 3.3873924548100978 Q -1.1522593756316266 3.3457487381187896 -1.1735963177246895 3.3402957662577504 Q -1.1949332598177522 3.3348427943967107 -1.2420087656427092 3.356931179383496 L -1.6910366673576835 3.5676203900266787 Q -1.7227221039706353 3.5824875722293226 -1.7364688115654145 3.595565340781474 Q -1.7502155191601936 3.6086431093336255 -1.7488508821440625 3.6256765401628566 Q -1.7474862451279312 3.642709970992088 -1.7343181694627323 3.6707742148492737 Q -1.6926900592953293 3.759493437365539 -1.6325964314694161 3.7804518699099976 Q -1.572502803643503 3.8014103024544563 -1.4964577557724184 3.7657290651681112 Q -1.4267497952239245 3.7330212643222946 -1.4063555016143745 3.6776107708380503 Q -1.3859612080048243 3.622200277353806 -1.4263149882691435 3.5361969494043652 L -1.470066981608353 3.442951235943393 Q -1.470066981608353 3.442951235943393 -1.4623719470023502 3.439340634551322 Q -1.4546769123963477 3.4357300331592517 -1.4546769123963477 3.4357300331592517 L -1.4181461218412796 3.513585677408219 Q -1.3930843004139657 3.566998270555766 -1.3591222388632223 3.5864103383287653 Q -1.3251601773124788 3.6058224061017645 -1.2861141756148382 3.6007568605805154 Q -1.2470681739171976 3.5956913150592658 -1.2081403517927138 3.577425919781732 Q -1.1411482858110444 3.545992448838999 -1.1210048443424796 3.5006411339098538 Q -1.1008614028739148 3.4552898189807086 -1.132719650451009 3.3873924548100978 M -0.64414064155452 4.135795799325133 Q -0.6748238705388918 4.153103007623776 -0.7024204102577585 4.17126012731675 Q -0.7300169499766251 4.189417247009725 -0.7437797469801654 4.199396496412328 Q -0.7583521202780316 4.209962760485672 -0.7711231144636677 4.22045807884723 Q -0.7838941086493036 4.230953397208787 -0.7922124332161471 4.238220134881268 L -0.8057137706431976 4.2195998801117724 Q -0.7614708573024176 4.180108556772079 -0.7399976365263287 4.150951211393918 Q -0.7185244157502396 4.121793866015757 -0.7223414482571592 4.091828381490372 Q -0.7261584807640787 4.061862896964986 -0.7572702583133689 4.018955353365714 L -0.8059924759848989 3.951760520936664 Q -0.8259509747901039 3.9242349269295835 -0.8406764011468695 3.9132959224679578 Q -0.8554018275036351 3.9023569180063316 -0.8730915006787863 3.9077722169783495 Q -0.8907811738539375 3.913187515950367 -0.9207354967439958 3.9349070587677963 L -1.3222853387296416 4.226066335455493 Q -1.351430085325374 4.247198863602181 -1.3624803705987922 4.26262258544148 Q -1.3735306558722105 4.278046307280779 -1.3677105687530298 4.29544247312056 Q -1.361890481633849 4.31283863896034 -1.341931982828644 4.340364232967421 L -1.2990799118645273 4.399463302453212 Q -1.2620979876078238 4.450466608995743 -1.2292572138051905 4.466798589158732 Q -1.1964164400025572 4.483130569321721 -1.1567360399452609 4.472269360765906 Q -1.1170556398879645 4.46140815221009 -1.059514501767266 4.428332218001445 L -1.0460131643402155 4.44695247277094 Q -1.0696327682992388 4.460373139997978 -1.106063701543904 4.486788800181338 Q -1.1214456511360962 4.497942078925423 -1.1493050875785538 4.519995464178229 Q -1.1771645240210111 4.542048849431035 -1.20558036452243 4.567593712096508 Q -1.2338989601415857 4.5251312917444055 -1.2710631109218675 4.473024901572177 Q -1.3082272617021493 4.4209185113999485 -1.3375779952392155 4.380439696683654 Q -1.3504923179955246 4.362629018208484 -1.3707443241361004 4.334698636054241 Q -1.3909963302766761 4.306768253899997 -1.4148817052534919 4.274678709462332 Q -1.4387670802303079 4.2425891650246665 -1.4632394698778652 4.2096900442926755 Q -1.4877118595254224 4.176790923560684 -1.5102409786371773 4.147423615341367 L -1.4940494527506594 4.135683321926541 Q -1.4724718013568026 4.162034886592139 -1.4573415868528738 4.172680383718394 Q -1.4422113723489454 4.183325880844649 -1.4241169110266312 4.1776170745372605 Q -1.406022449704317 4.171908268229872 -1.3768777031085848 4.150775740083184 L -0.9753278611229389 3.8596164633954877 Q -0.9453735382328807 3.837896920578059 -0.9347280411066254 3.82276670607413 Q -0.92408254398037 3.8076364915702015 -0.929093054805225 3.7896533110596797 Q -0.9341035656300798 3.771670130549158 -0.953252488140959 3.743557521871336 L -0.9370609622544409 3.7318172284565096 Q -0.9161509957313378 3.762358566017309 -0.8924881823781066 3.795844701420042 Q -0.8688253690248752 3.8293308368227743 -0.8457495703423852 3.8620073959311805 Q -0.8226737716598951 3.8946839550395875 -0.8024217655193194 3.922614337193831 Q -0.7821697593787437 3.9505447193480743 -0.7692554366224346 3.968355397823244 Q -0.7422527617683337 4.005595907362236 -0.7075076153828033 4.05266261324493 Q -0.6727624689972729 4.099729319127624 -0.64414064155452 4.135795799325133 M -1.0219822575814852 4.1973076940946115 Q -1.0219822575814852 4.1973076940946115 -1.0300780205247442 4.203177840802025 Q -1.0381737834680034 4.209047987509438 -1.0381737834680034 4.209047987509438 L -1.1455974682136656 4.0608955256477985 Q -1.1455974682136656 4.0608955256477985 -1.1375017052704066 4.055025378940385 Q -1.1294059423271476 4.049155232232972 -1.1294059423271476 4.049155232232972 L -1.0219822575814852 4.1973076940946115 M -0.8980947612789683 4.143299470092208 Q -0.9465886687385098 4.17352100114716 -0.970582450232916 4.191536229416562 Q -0.9945762317273223 4.209551457685965 -1.01481563908547 4.224226824454498 Q -1.0350550464436172 4.238902191223031 -1.058755320602653 4.2573222076395965 Q -1.0824555947616885 4.275742224056162 -1.1262533848552994 4.312440365465721 L -1.1397547222823499 4.293820110696226 Q -1.1161963395468866 4.2717973360552 -1.094732843259024 4.249440718978797 Q -1.0732693469711614 4.227084101902394 -1.0683423806405208 4.200660154377909 Q -1.0634154143098802 4.174236206853424 -1.0892440598224984 4.138614849903084 L -1.0730525339359804 4.126874556488258 Q -1.0536810498015168 4.153590574201012 -1.032479013090144 4.159833461296708 Q -1.0112769763787712 4.166076348392403 -0.9895797568319966 4.160225650661443 Q -0.9678825372852222 4.154374952930482 -0.9479060266506656 4.143595851721781 Q -0.9279295160161087 4.132816750513078 -0.9115960987060187 4.124679215322712 L -0.8980947612789683 4.143299470092208 M -0.3917958160140125 4.3790888830254415 Q -0.35576273097643607 4.413753227569581 -0.3449983260020483 4.440066296291175 Q -0.3342339210276606 4.46637936501277 -0.3295267034849889 4.490334366640948 Q -0.32573177131215003 4.503698441236802 -0.3227533126746034 4.511420408871053 Q -0.31977485403705663 4.519142376505304 -0.3147302221317959 4.523995384741483 Q -0.3075236051242807 4.530928253650312 -0.2966544716711881 4.526120765951017 Q -0.2857853382180957 4.521313278251723 -0.2683710415164199 4.507538581507838 L -0.2517958223991348 4.523484179998142 Q -0.2643023612448936 4.535042142020035 -0.28167559573176626 4.5509377616513715 Q -0.2990488302186388 4.566833381282708 -0.3261007063680017 4.5942322133162 Q -0.3531525825173645 4.621631045349693 -0.39682965664297987 4.66703273249704 L -0.41340487576026497 4.651087134006735 Q -0.3822890901001461 4.614415511698014 -0.36475637751483114 4.5702272328290565 Q -0.3472236649295163 4.526038953960099 -0.35267446066072616 4.4819420286036005 Q -0.35812525639193593 4.437845103247102 -0.3984823116340216 4.399021037357666 Q -0.4366773817738526 4.3622768321408785 -0.48372539095802936 4.361419608829471 Q -0.5307734001422061 4.360562385518064 -0.5668243184681108 4.398036793957144 Q -0.5980222285578359 4.430466570490962 -0.6025922596124756 4.468392350854188 Q -0.6071622906671152 4.506318131217413 -0.5964023440148096 4.550665888184813 Q -0.5856423973625039 4.595013645152212 -0.572624653773403 4.646390082862981 Q -0.5573354258425725 4.705502175612934 -0.5499871640249432 4.75628113826736 Q -0.5426389022073139 4.8070601009217855 -0.5520482540931987 4.850737487486089 Q -0.5614576059790835 4.894414874050393 -0.5988950980867538 4.933330605890975 Q -0.6432654591032518 4.979452954739073 -0.6932826978421229 4.989615426335037 Q -0.743299936580994 4.999777897931001 -0.7924507229256059 4.981634022884409 Q -0.8416015092702176 4.963490147837818 -0.8833998879138063 4.923279508166616 Q -0.9215949580536373 4.886535302949829 -0.9356160280863414 4.856395468923444 Q -0.9496370981190454 4.826255634897059 -0.9564789259541029 4.8016347211878685 Q -0.9626274668982775 4.776293145777926 -0.9712754073072959 4.767973703087333 Q -0.9784820243148111 4.761040834178504 -0.9893511577679036 4.765848321877799 Q -1.000220291220996 4.770655809577093 -1.0176345879226718 4.784430506320978 L -1.034209807039957 4.768484907830675 Q -1.0182094589299155 4.754737585896658 -0.9980904516893805 4.734545370870681 Q -0.9779714444488455 4.714353155844703 -0.9457199166178618 4.681549361055574 Q -0.9134683887868781 4.648745566266446 -0.8649383064250833 4.598299247213839 L -0.8483630873077982 4.6142448457041425 Q -0.887077653957759 4.660257695312765 -0.9097963308197603 4.710557911233177 Q -0.9325150076817617 4.760858127153588 -0.9266080692656354 4.810250516026247 Q -0.9207011308495092 4.859642904898908 -0.8745787820014114 4.904013265915406 Q -0.8507969458766109 4.9268917333145374 -0.8201780526775233 4.937614763635434 Q -0.7895591594784357 4.94833779395633 -0.7554146238831145 4.940250724710934 Q -0.7212700882877934 4.932163655465536 -0.6886856044163028 4.898292555530214 Q -0.6602608418901086 4.868745425799402 -0.6531684948828387 4.833246149554266 Q -0.6460761478755686 4.79774687330913 -0.6529272047934784 4.754384297058317 Q -0.6597782617113881 4.711021720807504 -0.6742373287019922 4.65825870931497 Q -0.6880031088017133 4.604775036121685 -0.6967516318060425 4.554730422572946 Q -0.7055001548103718 4.504685809024206 -0.6957715342889144 4.459234143017892 Q -0.6860429137674569 4.413782477011579 -0.6472188478780212 4.373425421769493 Q -0.606314921315937 4.3309063814251525 -0.5605258409470344 4.321533008554613 Q -0.5147367605781318 4.312159635684073 -0.47092249996448465 4.328638730528129 Q -0.4271082393508374 4.345117825372185 -0.3917958160140125 4.3790888830254415 M 0.31673969295163684 4.932584009054052 Q 0.2922615333291365 4.9619237381171395 0.27125192420713296 4.990578516506452 Q 0.2502423150851293 5.0192332948957645 0.23966463574358787 5.035016599357998 Q 0.22630335657532508 5.054953404994501 0.2154429375379494 5.072954829891787 Q 0.20458251850057385 5.090956254789073 0.19650569928991957 5.104804178512087 L 0.17739959388826976 5.091999619309168 Q 0.21055508981838922 5.029953563111953 0.22313384559658067 4.989629564016221 Q 0.23571260137477212 4.949305564920489 0.22081255370533903 4.917651361732783 Q 0.20591250603590594 4.885997158545075 0.15357839124008232 4.850923800728386 L 0.10872057855794792 4.8208609225997945 L -0.20805308172295017 5.293529356231915 Q -0.23032188033672157 5.326757365626088 -0.2352260278821997 5.347546770063257 Q -0.24013017542767784 5.368336174500427 -0.22575181001829225 5.386398915381982 Q -0.21137344460890678 5.4044616562635355 -0.17759747467571302 5.429505295277704 L -0.18873187398259872 5.446119299974791 Q -0.20921664015812302 5.429983180406131 -0.24216628956962455 5.407299031674933 Q -0.2751159389811261 5.384614882943734 -0.30917464861015403 5.361789364364618 Q -0.3465561591785994 5.336736965924126 -0.3796471784380181 5.315161877410453 Q -0.4127381976974367 5.293586788896781 -0.4337884432646295 5.281886910198227 L -0.42265404395774375 5.26527290550114 Q -0.38665119416317284 5.286993743575891 -0.36447874923896734 5.2934266811694854 Q -0.34230630431476183 5.2998596187630795 -0.3249416532464686 5.287421013806075 Q -0.3075770021781753 5.27498240884907 -0.2853082035644039 5.241754399454896 L 0.031465456716494145 4.769085965822776 L -0.013392355965640257 4.739023087694185 Q -0.06489577052660944 4.704506449842839 -0.100253087065864 4.702479095127217 Q -0.13561040360511856 4.7004517404115935 -0.1681259650198142 4.727414460339063 Q -0.20064152643450983 4.754377180266533 -0.2454268256525901 4.808629156948927 L -0.26453293105424 4.795824597746008 Q -0.2539640111390228 4.783646833919027 -0.24185754174936558 4.7664804889697585 Q -0.22975107235970843 4.749314144020489 -0.21638979319144563 4.729377338383985 Q -0.20581211384990422 4.713594033921752 -0.18729460543246362 4.6832690956364065 Q -0.16877709701502297 4.652944157351062 -0.15094453927135754 4.6191506685652195 Q -0.11661184937281949 4.643363607344534 -0.07604890771287387 4.67175194586393 Q -0.0354859660529282 4.700140284383326 0.006049045689788812 4.72797628265054 Q 0.04758405743250593 4.7558122809177545 0.08164276706153395 4.77863779949687 Q 0.11570147669056197 4.801463318075986 0.15682113831585176 4.829020956360528 Q 0.19794079994114178 4.856578594645071 0.24003253164920313 4.88358389267743 Q 0.2821242633572645 4.91058919070979 0.31673969295163684 4.932584009054052 M 0.6318462302596006 5.083252433423132 Q 0.6514455922267998 5.090859338870073 0.6833741749810025 5.102588175270502 Q 0.7153027577352054 5.114317011670931 0.7466000105022146 5.124780374860553 Q 0.7911748856552276 5.139682740615469 0.8322732260240464 5.152368418324158 Q 0.8733715663928652 5.165054096032847 0.8904427951748701 5.170761385045368 Q 0.9900249630698995 5.2040539042850735 1.0263390968974184 5.262588370066842 Q 1.0626532307249374 5.321122835848611 1.0407752895102735 5.38656254617963 Q 1.0296777830970383 5.41975660214464 1.0053040609160089 5.446930517339952 Q 0.9809303387349796 5.474104432535264 0.9404394158437853 5.489563577512246 Q 0.899948492952591 5.505022722489229 0.8414477860078611 5.503389539411057 L 0.8408136427842476 5.5052863426090575 Q 0.9125666529872025 5.5398190159317915 0.9460510548180301 5.580009746629698 Q 0.9795354566488575 5.6202004773276055 0.9848750357940138 5.660998625503137 Q 0.9902146149391702 5.701796773678668 0.9772146788550945 5.740681239237679 Q 0.9591415969821112 5.794740130380696 0.9183195362970108 5.826959059000716 Q 0.8774974756119104 5.859177987620736 0.8183569989707271 5.86576616055818 Q 0.759216522329544 5.872354333495624 0.688086402404523 5.84857396261012 Q 0.6672215672265169 5.841598387150372 0.6259675042882147 5.826224633832376 Q 0.5847134413499125 5.810850880514379 0.5259125422118952 5.791192440582362 Q 0.4927184862468854 5.780094934169127 0.46031429607497254 5.769788700167199 Q 0.4279101059030597 5.75948246616527 0.4073595291004404 5.754720765515329 L 0.41370096133657486 5.735752733535324 Q 0.4465807589261978 5.744636365138752 0.465080216579543 5.744494708751368 Q 0.4835796742328883 5.744353052363984 0.49497737283941096 5.72918425325282 Q 0.5063750714459336 5.714015454141655 0.5177896494709757 5.679872996577645 L 0.6750571689271105 5.209465803473506 Q 0.6867888185639593 5.174374944310496 0.6866471621765753 5.15587548665715 Q 0.6865055057891913 5.137376029003805 0.6719694432834302 5.125662665403686 Q 0.657433380777669 5.113949301803566 0.6255047980234663 5.102220465403137 L 0.6318462302596006 5.083252433423132 M 0.8607083945755355 5.180854225131204 Q 0.8170819210215226 5.166268930988096 0.7984140812348044 5.177952755605807 Q 0.7797462414480862 5.189636580223517 0.7632585176341365 5.238953463371532 L 0.6059909981780016 5.70936065647567 Q 0.5948934917647664 5.74255471244068 0.594876612346247 5.761528370893525 Q 0.5948597329277276 5.78050202934637 0.6081317288408918 5.791265584729279 Q 0.6214037247540559 5.802029140112189 0.6508041743230646 5.8118583600781974 Q 0.743747531025092 5.8429313780352565 0.8003781605178103 5.813888792006143 Q 0.8570087900105285 5.784846205977029 0.8836428054022933 5.705180471661006 Q 0.9080573195114111 5.6321535485379846 0.8820156608487819 5.5791622094899935 Q 0.8559740021861527 5.5261708704420025 0.7658758502811261 5.496049067320364 L 0.6681904855840974 5.463390691304271 Q 0.6681904855840974 5.463390691304271 0.6708855942844546 5.455329277712769 Q 0.6735807029848118 5.447267864121267 0.6735807029848118 5.447267864121267 L 0.7551432404988357 5.474536022736645 Q 0.8110989348398523 5.493243247833242 0.8485818972735124 5.482050503433551 Q 0.8860648597071726 5.470857759033859 0.9093358643379281 5.43909755841303 Q 0.9326068689686836 5.4073373577921995 0.9462409482763727 5.366556089035188 Q 0.9697042475500702 5.2963743707091675 0.9507713810253133 5.250504483362938 Q 0.9318385145005564 5.204634596016709 0.8607083945755355 5.180854225131204 M 1.5241741312514858 5.309416983541003 L 1.682054968716428 5.965351920224031 Q 1.6918499035151724 6.005013731230191 1.7090119097643264 6.01993738833909 Q 1.7261739160134804 6.03486104544799 1.7418973706574012 6.037987221076544 L 1.7392284714034754 6.0578083455848155 Q 1.7196742368205966 6.053157333880062 1.6910003287649513 6.048791901849163 Q 1.6623264207093063 6.044426469818264 1.6335857901723125 6.040556565900071 Q 1.5949345973811835 6.0353522123549155 1.5611719632357741 6.0313106117359485 Q 1.5274093290903648 6.0272690111169815 1.5063302584312872 6.0264487793511865 L 1.508999157685213 6.006627654842915 Q 1.5598099151066975 6.011451235489599 1.57575309918428 5.997958093473437 Q 1.5916962832618626 5.984464951457275 1.5786808518511022 5.931252184707256 L 1.4606665403842363 5.4138764776152035 L 1.4782582245059053 5.403127866087968 L 1.2454973181452205 5.8278658564657455 Q 1.2243026200307516 5.865372986079147 1.217659714880363 5.8922266973899315 Q 1.211016809729974 5.919080408700715 1.2173056682428487 5.936071590490251 Q 1.2235945267557233 5.953062772279787 1.2429770646378275 5.962735787592956 Q 1.2623596025199315 5.972408802906124 1.2929489005450558 5.9775366529751235 L 1.29028000129113 5.997357777483394 Q 1.2627973169049427 5.991639206077071 1.232636824511177 5.987073606602127 Q 1.2024763321174115 5.9825080071271834 1.1767088702566586 5.9790384380970805 Q 1.1519324646213196 5.975702314029673 1.134522258195234 5.973862555295194 Q 1.1171120517691484 5.972022796560716 1.1019793184625524 5.9720032345710985 L 1.1046482177164783 5.952182110062828 Q 1.125136567038231 5.949895728189685 1.1484174795817972 5.934363532236157 Q 1.1716983921253636 5.9188313362826275 1.1945513712787275 5.876502370504855 L 1.5083172316448687 5.307281864137862 Q 1.512281456546523 5.307815643988647 1.5162456814481773 5.308349423839433 Q 1.5202099063498316 5.308883203690217 1.5241741312514858 5.309416983541003 M 1.5883688816060166 5.746896164790716 L 1.5856999823520908 5.766717289298987 L 1.290365227178848 5.726950690415492 L 1.3029446886869094 5.708464015534184 L 1.5883688816060166 5.746896164790716 M 2.504606753463614 5.312720047202361 L 2.505971560815552 5.332673425384816 Q 2.472119058272974 5.335991266792234 2.4552740156716975 5.346164493407284 Q 2.4384289730704207 5.356337720022334 2.4338077669676217 5.376700540410371 Q 2.429186560864823 5.397063360798408 2.431711454465908 5.4339771104359516 L 2.4724509539212516 6.029585449182252 Q 2.466464940466515 6.029994891387833 2.46097776146634 6.030370213409617 Q 2.4554905824661644 6.030745535431399 2.449504569011428 6.03115497763698 L 1.9861956286094773 5.412328810006989 L 2.022226542700636 5.939097994023818 Q 2.0246831959341236 5.975014074752238 2.032566971379158 5.995022724999876 Q 2.0404507468241926 6.015031375247513 2.0604853336766604 6.022180873806917 Q 2.0805199205291283 6.029330372366322 2.1195654887201103 6.028664335848288 L 2.120930296072048 6.048617714030744 Q 2.1028357749726445 6.047850702829242 2.073869256424285 6.04933083903499 Q 2.044902737875926 6.050810975240739 2.018963346238734 6.052585224798258 Q 1.9940216235106643 6.054291233988181 1.9686151865118318 6.056530197816462 Q 1.9432087495129993 6.0587691616447445 1.9263848587931058 6.061924585712138 L 1.925020051441168 6.041971207529682 Q 1.9588043136161488 6.037655697213142 1.9756834764012239 6.027981305052653 Q 1.992562639186299 6.018306912892164 1.9971497251052994 5.997445258049565 Q 2.0017368110243 5.976583603206967 1.9992801577908117 5.940667522478547 L 1.9661153391387227 5.455800432644875 Q 1.9635904455376378 5.418886683007332 1.9564102256499556 5.401836919303264 Q 1.9492300057622733 5.384787155599197 1.9313272374632446 5.379496514122844 Q 1.9134244691642164 5.374205872646492 1.8794354858864448 5.375528376235664 L 1.878070678534507 5.355574998053208 Q 1.8950992903571913 5.355412580713184 1.920608087907419 5.354670120248586 Q 1.9461168854576467 5.353927659783988 1.9710586081857164 5.352221650594066 Q 1.9930073241864177 5.350720362506934 2.0128924620012763 5.348357886245873 Q 2.032777599816135 5.345995409984813 2.0486720619945027 5.34390589519414 L 2.4379719468875534 5.862548931995231 L 2.4087650695560843 5.4355466388906795 Q 2.406240175954999 5.398632889253137 2.398390520693763 5.379123073460061 Q 2.390540865432527 5.359613257666985 2.370472158396261 5.35196492465302 Q 2.3504034513599947 5.344316591639054 2.3114261235366094 5.34598029706621 L 2.3100613161846715 5.326026918883755 Q 2.3280875969164785 5.325796261176133 2.3575870701031976 5.324780839241147 Q 2.387086543289916 5.323765417306162 2.4120282660179857 5.32205940811624 Q 2.4379676576551783 5.32028515855872 2.4633399744702125 5.317547360275877 Q 2.488712291285246 5.314809561993034 2.504606753463614 5.312720047202361 M 3.1598905124871535 5.13446466456741 L 3.16536198590997 5.153701685609749 Q 3.136638897978907 5.166029873623582 3.113122396205768 5.189353126920539 Q 3.0896058944326286 5.212676380217494 3.071834439753447 5.256198505608905 L 2.9537698834666535 5.546575434011977 L 2.961525496727327 5.4934261116931475 L 3.2842905027387173 5.750950384130654 Q 3.3074813124032265 5.770345908024185 3.3305483648415377 5.778340349331006 Q 3.3536154172798485 5.786334790637826 3.3856213892646014 5.785548815249397 L 3.391092862687418 5.804785836291737 Q 3.3674612900943286 5.809427902294883 3.3331787909086055 5.818658842094323 Q 3.298896291722883 5.827889781893764 3.2748500154199585 5.834729123672284 Q 3.2584985475339696 5.839379876081678 3.235069983592674 5.846563356550687 Q 3.2116414196513787 5.8537468370196954 3.176600078065332 5.86579276495614 L 3.1711286046425156 5.8465557439138 Q 3.2032843930722112 5.835330536990779 3.209205315829856 5.823249863429341 Q 3.2151262385875006 5.811169189867904 3.19344442731739 5.793423794407467 L 2.9928279660573303 5.6217583189282925 Q 2.9651101612096253 5.597412409735482 2.9459610779991294 5.586744110330352 Q 2.9268119947886335 5.5760758109252215 2.9095735840729997 5.57578052123846 Q 2.8923351733573655 5.575485231551699 2.8680153233833 5.581362722278103 L 2.862543849960484 5.562125701235764 Q 2.902668020478256 5.549673755995732 2.925840383560907 5.526968215060405 Q 2.949012746643558 5.504262674125078 2.9607221485264006 5.475980349122596 L 3.01968386165045 5.332371448334806 Q 3.0399348521823955 5.282945772998246 3.043543428344716 5.2517692084331635 Q 3.0471520045070353 5.220592643868081 3.030407548926832 5.209240410285099 Q 3.0136630933466284 5.197888176702117 2.972991775486575 5.2084164198379135 L 2.9675203020637584 5.1891793987955745 Q 2.9860690457251216 5.184943350096016 3.0054428536030318 5.179952802199258 Q 3.0248166614809415 5.1749622543025 3.043709543832793 5.170108493241312 Q 3.0626024261846445 5.1652547321801245 3.078953894070633 5.16060397977073 Q 3.1039620214256742 5.153491064321069 3.124849170901107 5.146510592503854 Q 3.14573632037654 5.139530120686639 3.1598905124871535 5.13446466456741 M 2.8540218779139552 5.221461091990191 L 2.8594933513367717 5.240698113032531 Q 2.8270639892359353 5.250961468903435 2.8120098246863034 5.262001039987161 Q 2.7969556601366716 5.273040611070885 2.7959720930689342 5.291514446509777 Q 2.794988526001197 5.3099882819486695 2.8051107518334075 5.345576770876997 L 2.9408032927192553 5.822654892727018 Q 2.950651944880325 5.857281530603228 2.9613473772735617 5.87295340751449 Q 2.972042809666798 5.88862528442575 2.99051664510569 5.889608851493487 Q 3.008990480544582 5.890592418561225 3.042240563658841 5.883214615846671 L 3.0477120370816575 5.90245163688901 Q 3.025042315540685 5.906820129221015 2.9917216674070795 5.915777495349315 Q 2.9584010192734733 5.924734861477615 2.924736232449379 5.934309939967544 Q 2.887224041416817 5.944979313142036 2.85465789248041 5.954761743486882 Q 2.8220917435440036 5.964544173831729 2.802440018791829 5.97221292302992 L 2.7969685453690123 5.95297590198758 Q 2.8291243337987075 5.941750695064559 2.8443152851839097 5.931192049506892 Q 2.859506236569112 5.920633403949226 2.860353016801279 5.901678642984275 Q 2.861199797033446 5.882723882019325 2.8513511448723765 5.848097244143114 L 2.7156586039865287 5.371019122293093 Q 2.705536378154318 5.335430633364766 2.694977732596652 5.320239681979563 Q 2.6844190870389855 5.305048730594361 2.665808464764523 5.303584238000566 Q 2.6471978424900606 5.3021197454067694 2.6142213330469426 5.310459399173441 L 2.6087498596241265 5.291222378131101 Q 2.6292223053897237 5.286439182089261 2.6621988148328417 5.27809952832259 Q 2.6951753242759597 5.269759874555919 2.7326875153085215 5.259090501381427 Q 2.7663523021326157 5.249515422891498 2.7992625897595107 5.239115280185023 Q 2.8321728773864057 5.228715137478547 2.8540218779139552 5.221461091990191 M 3.9350259241386314 4.714567127846418 Q 3.949988673039433 4.746459386238253 3.9660299188218517 4.77533720529974 Q 3.9820711646042706 4.804215024361228 3.9909926063179064 4.8186859565271325 Q 4.000438838720579 4.834008119996914 4.009949116393573 4.847528645821842 Q 4.019459394066566 4.86104917164677 4.026083322949854 4.869887925300377 L 4.00650500296069 4.881958111148236 Q 3.9704349644842236 4.834884208353735 3.94296614136979 4.811289425949399 Q 3.915497318255356 4.787694643545064 3.8853302237115805 4.789258742898342 Q 3.8551631291678055 4.79082284225162 3.8100478700623395 4.818636748770602 L 3.7393956718405716 4.862194375960705 Q 3.710453807508763 4.880037259387977 3.698443608480626 4.893902868617453 Q 3.686433409452489 4.907768477846929 3.690509858687383 4.925813769798996 Q 3.694586307922277 4.943859061751063 3.7140035634166604 4.975354619994501 L 3.974299745179206 5.397565346717355 Q 3.993192209984552 5.428209673656917 4.007745830210485 5.440383092992474 Q 4.022299450436419 5.45255651232803 4.040082347043967 5.448054447441198 Q 4.0578652436515155 5.4435523825543655 4.086807107983324 5.425709499127095 L 4.148946993166325 5.387399778827365 Q 4.202574565310558 5.35433796541801 4.221318140972915 5.32281133585839 Q 4.240061716635274 5.291284706298771 4.232200129013546 5.250902836108475 Q 4.224338541391819 5.210520965918178 4.195660975042489 5.150666165039054 L 4.215239295031653 5.1385959791911935 Q 4.226854949724032 5.163153596462977 4.2504705307307145 5.201459005137429 Q 4.260441553822425 5.217632399911087 4.280348470239067 5.247063925165155 Q 4.30025538665571 5.2764954504192225 4.323602358054638 5.306743077210388 Q 4.279139980178851 5.331804939743542 4.224398781386221 5.364965928189996 Q 4.169657582593593 5.398126916636451 4.127096017399757 5.42436645108832 Q 4.1083689287144685 5.4359118462471425 4.079001448730722 5.454017125018932 Q 4.049633968746975 5.472122403790722 4.015847111936425 5.493539647004156 Q 3.982060255125875 5.51495689021759 3.947422167011448 5.536898924120062 Q 3.912784078897021 5.558840958022533 3.88181331134262 5.579109444820793 L 3.871317497561872 5.5620848187432586 Q 3.899209780515606 5.542539472708234 3.9109575841992243 5.52824824782682 Q 3.9227053878828424 5.513957022945405 3.9183665433034296 5.495486115341399 Q 3.9140276987240172 5.477015207737394 3.895135233918671 5.446370880797832 L 3.6348390521561256 5.024160154074979 Q 3.615421796661742 4.99266459583154 3.6011305717803275 4.980916792147922 Q 3.5868393468989126 4.969168988464304 3.568531659602327 4.97281982204726 Q 3.5502239723057416 4.976470655630215 3.520757317284896 4.993462307753609 L 3.5102615035041476 4.976437681676075 Q 3.542281852436624 4.957871657485569 3.577444731240088 4.936780854886974 Q 3.6126076100435522 4.9156900522883795 3.6469192575431397 4.895124040378822 Q 3.681230905042727 4.874558028469265 3.7105983850264743 4.856452749697475 Q 3.739965865010221 4.838347470925685 3.7586929536955087 4.826802075766862 Q 3.797849593673838 4.802661704071142 3.8473842296061074 4.771535833110517 Q 3.896918865538377 4.740409962149891 3.9350259241386314 4.714567127846418 M 3.968092555522623 5.095952232286687 Q 3.968092555522623 5.095952232286687 3.9733404624129967 5.104464545325454 Q 3.978588369303371 5.112976858364221 3.978588369303371 5.112976858364221 L 3.822813040693931 5.209013554458064 Q 3.822813040693931 5.209013554458064 3.8175651338035568 5.200501241419297 Q 3.812317226913183 5.191988928380529 3.812317226913183 5.191988928380529 L 3.968092555522623 5.095952232286687 M 3.9235058923821122 4.968370770192876 Q 3.9500140364417367 5.018990117269999 3.9661833727647964 5.044264661041781 Q 3.9823527090878565 5.069539204813564 3.9954724763137914 5.090819987410482 Q 4.008592243539726 5.1121007700074 4.025187195514724 5.137112918434664 Q 4.041782147489723 5.162125066861929 4.075100141980361 5.208546088426752 L 4.055521821991197 5.220616274274612 Q 4.035323594726493 5.195476035306706 4.014635706539531 5.172399829328172 Q 3.9939478183525683 5.149323623349638 3.96796662079462 5.142433240671234 Q 3.941985423236672 5.13554285799283 3.904531245866096 5.158633648310475 L 3.894035432085348 5.14160902223294 Q 3.9221260651132797 5.124290929494706 3.9299379386291178 5.103615469834216 Q 3.9377498121449555 5.082940010173726 3.933539058106184 5.060865827280016 Q 3.9293283040674125 5.038791644386306 3.9200742074757016 5.018064567981967 Q 3.9108201108839906 4.997337491577628 3.9039275723929476 4.980440956040736 L 3.9235058923821122 4.968370770192876 M 4.484822655759999 4.231791354332494 L 4.498355619140006 4.246517484243485 Q 4.487072388400566 4.262319025436691 4.484098113957257 4.29085678448564 Q 4.481123839513949 4.319394543534589 4.499055796694623 4.364031354707325 L 4.736072560654699 4.969245410725436 Q 4.734599947663599 4.970598707063437 4.733127334672501 4.971952003401437 Q 4.7316547216814016 4.9733052997394385 4.730182108690302 4.974658596077439 Q 4.728709495699203 4.97601189241544 4.727236882708104 4.97736518875344 Q 4.725764269717005 4.978718485091441 4.724291656725906 4.980071781429442 L 4.119021173510588 4.682037148964865 Q 4.082263945655331 4.664207224668987 4.059816020127386 4.667859708685624 Q 4.037368094599439 4.671512192702262 4.0249105425016465 4.681602256910718 L 4.011377579121639 4.666876126999727 Q 4.0267803572016305 4.65407947011527 4.049178046989343 4.6348546556253085 Q 4.071575736777055 4.615629841135347 4.092192318652442 4.596683692403337 Q 4.120908271978874 4.570294413812323 4.145266044658559 4.546552069570761 Q 4.169623817338243 4.522809725329199 4.184409605575783 4.507863807284642 L 4.19794256895579 4.522589937195633 Q 4.173584796276106 4.546332281437195 4.165435969786992 4.563327769863548 Q 4.157287143297877 4.580323258289901 4.168024026512059 4.594223594215519 Q 4.178760909726241 4.6081239301411365 4.211338931914398 4.624361924792817 L 4.6818794874037915 4.861504467664677 L 4.681601602348005 4.884848048793025 L 4.503873960185463 4.434300731398565 Q 4.482797395465984 4.380330569089883 4.461423319815923 4.358549869144621 Q 4.440049244165863 4.336769169199361 4.415054075066768 4.342083444475224 Q 4.390058905967673 4.347397719751088 4.358457384985591 4.375080636353554 L 4.344924421605585 4.3603545064425635 Q 4.366953958145522 4.341468016037102 4.389719801181009 4.321904877462641 Q 4.4124856442164955 4.302341738888179 4.4316296131007835 4.28474888649417 Q 4.450773581985072 4.267156034100161 4.462614144240414 4.254916708731605 Q 4.474454706495756 4.242677383363049 4.484822655759999 4.231791354332494 M 4.819324238875058 3.7801366412098862 Q 4.845084295227994 3.8041661958602244 4.870723114744884 3.8249964847151676 Q 4.896361934261773 3.845826773570111 4.910029334137857 3.8559362829858657 Q 4.924500698712533 3.866640469426076 4.938360793263776 3.87564867563101 Q 4.9522208878150185 3.8846568818359435 4.961659176524 3.890394364406368 L 4.947981604961508 3.9088855524740103 Q 4.896979625597775 3.8786233962226557 4.862701396227294 3.8669506505634423 Q 4.828423166856813 3.8552779049042294 4.801006737579124 3.8679601525623335 Q 4.7735903083014355 3.880642400220437 4.742072426005258 3.923252529245874 L 4.692714232975397 3.989981599229105 Q 4.672495214143887 4.017316398981272 4.6665101720581665 4.034656504841161 Q 4.660525129972446 4.05199661070105 4.671026450051089 4.0672272468205914 Q 4.681527770129732 4.082457882940133 4.711274463977679 4.1044609328450115 L 5.110040954479878 4.3994207369752685 Q 5.138983683629231 4.42082910985569 5.157023110350644 4.426709508104342 Q 5.1750625370720575 4.4325899063529945 5.189891190842303 4.4217912477621235 Q 5.204719844612548 4.4109925891712525 5.2249388634440574 4.383657789419085 L 5.268350286229357 4.3249683664217855 Q 5.305814938770096 4.2743185904104175 5.311474542188837 4.238080228290386 Q 5.31713414560758 4.201841866170354 5.2948043215663585 4.167289312599191 Q 5.2724744975251365 4.132736759028028 5.223575566589182 4.0878603225237695 L 5.237253138151674 4.069369134456127 Q 5.25717615394032 4.087837308212222 5.293354565377012 4.114597774312751 Q 5.308629894650282 4.1258966377774176 5.338062656987022 4.145801725097721 Q 5.367495419323763 4.165706812418025 5.400424785968127 4.185088680552987 Q 5.368488328323677 4.224901526132325 5.330027016409185 4.276057928330058 Q 5.291565704494694 4.3272143305277915 5.261831853271886 4.367412565457449 Q 5.2487489587338505 4.385099788826498 5.228232601390113 4.412836570927961 Q 5.207716244046376 4.440573353029425 5.184331145417425 4.473029279485378 Q 5.160946046788475 4.505485205941332 5.136966271135069 4.538745097095879 Q 5.112986495481663 4.572004988250426 5.091787410275378 4.602346359122828 L 5.075708116303515 4.590452818633705 Q 5.094319205737839 4.561928664832626 5.099902265474262 4.544291220460509 Q 5.105485325210687 4.526653776088392 5.094582022782747 4.511125801456622 Q 5.083678720354808 4.495597826824852 5.054735991205455 4.4741894539444305 L 4.6559695007032555 4.179229649814173 Q 4.626222806855309 4.157226599909295 4.608585362483192 4.151643540172871 Q 4.590947918111075 4.146060480436447 4.575315299642237 4.156264462002862 Q 4.559682681173398 4.166468443569277 4.538659697643296 4.193208566296988 L 4.522580403671433 4.181315025807865 Q 4.545387418274904 4.152163008984374 4.570171158626904 4.119497794854284 Q 4.594954898978902 4.0868325807241925 4.619143962306445 4.054971331292696 Q 4.643333025633989 4.023110081861198 4.663849382977727 3.995373299759734 Q 4.684365740321464 3.9676365176582706 4.6974486348595 3.9499492942892216 Q 4.724803777984484 3.912966918153937 4.759190401565872 3.8656376447740097 Q 4.793577025147261 3.818308371394083 4.819324238875058 3.7801366412098862 M 4.991995717587454 4.1217981117319145 Q 4.991995717587454 4.1217981117319145 5.000035364573384 4.127744881976477 Q 5.008075011559316 4.133691652221038 5.008075011559316 4.133691652221038 L 4.899249116083838 4.280817192063584 Q 4.899249116083838 4.280817192063584 4.891209469097907 4.274870421819021 Q 4.8831698221119755 4.26892365157446 4.8831698221119755 4.26892365157446 L 4.991995717587454 4.1217981117319145 M 4.9031180110823875 4.0199857682445 Q 4.946565290804371 4.057098217432873 4.970981570274394 4.074536545817262 Q 4.995397849744417 4.09197487420165 5.015496967209245 4.106841799813054 Q 5.035596084674074 4.121708725424459 5.060309702656324 4.13874507145955 Q 5.085023320638575 4.155781417494643 5.133228016556209 4.186462149094271 L 5.119550444993717 4.204953337161913 Q 5.091444866540911 4.189139531173689 5.063653219599312 4.175423687770038 Q 5.035861572657712 4.161707844366387 5.009182736082707 4.164984989313465 Q 4.982503899507702 4.1682621342605435 4.95633811043163 4.203636580998642 L 4.940258816459767 4.191743040509518 Q 4.959883158266821 4.165212205455944 4.959436482763796 4.143114683400406 Q 4.958989807260771 4.121017161344868 4.9468639647859645 4.1020972262425435 Q 4.934738122311158 4.083177291140219 4.91843294766618 4.067385163994176 Q 4.902127773021204 4.051593036848133 4.889440439519896 4.0384769563121425 L 4.9031180110823875 4.0199857682445 M 4.8938255245721605 3.66443973066258 Q 4.903739283459927 3.645900114034526 4.919230963524608 3.6156179765806806 Q 4.934722643589288 3.5853358391268353 4.948881981961454 3.5555279016459806 Q 4.969048312370294 3.5130741725065815 4.986595088507332 3.4738044558384322 Q 5.004141864644369 3.4345347391702834 5.011865140120095 3.4182758641807265 Q 5.046619879760863 3.3451109267277195 5.090350399911483 3.306654566949964 Q 5.134080920062104 3.268198207172208 5.181130495739563 3.2612098290648706 Q 5.228180071417021 3.254221450957533 5.272440342221927 3.2752459230858992 Q 5.299538467204521 3.2881180488787765 5.325100825200979 3.3135457081037414 Q 5.350663183197436 3.338973367328707 5.365103717817035 3.3784919826878026 Q 5.379544252436634 3.4180105980468984 5.37527541982743 3.47244429228268 Q 5.3710065872182255 3.5268779865184623 5.337539060156746 3.5973331114732097 L 5.296348257619539 3.684047111417514 L 5.278282840964475 3.6754656942222628 L 5.3151829349040565 3.59778440260549 Q 5.345646965947199 3.533652173480015 5.341413529451349 3.490125422907113 Q 5.3371800929554984 3.4465986723342112 5.309099893334049 3.418314358850947 Q 5.2810196937126 3.390030045367683 5.239469235405954 3.3702927858186045 Q 5.168110839618453 3.3363961878973614 5.112728401152594 3.3516042617259334 Q 5.057345962686735 3.366812335554506 5.018300514448341 3.4490099813350446 Q 4.998563254899263 3.4905604396416905 5.007911867019391 3.5105004359161986 Q 5.017260479139519 3.530440432190707 5.064230562442684 3.5527521168983602 L 5.512252895488257 3.765571263340595 Q 5.544770645467372 3.7810178142920474 5.563603945615504 3.7833214647712547 Q 5.582437245763637 3.785625115250462 5.595365610806001 3.772392300835857 Q 5.6082939758483645 3.7591594864212516 5.624688926745798 3.7293064198271693 L 5.642754343400862 3.7378878370224204 Q 5.631079171960816 3.7578049244562184 5.615824591882631 3.7887532327563216 Q 5.600570011804446 3.819701541056425 5.5855525317127555 3.851316020202786 Q 5.568818768182015 3.8865435826801593 5.554681994366464 3.9174693264236486 Q 5.540545220550914 3.9483950701671375 5.5333412741614065 3.9682218993744796 L 5.515275857506342 3.959640482179228 Q 5.528057725072764 3.928071132146095 5.5301468401220895 3.909689467414339 Q 5.532235955171416 3.8913078026825834 5.518551505340434 3.878164902210338 Q 5.504867055509452 3.8650220017380925 5.472349305530338 3.84957545078664 L 5.024326972484765 3.6367563043444053 Q 4.9909059516728975 3.62088068253319 4.972524286941141 3.618791567483864 Q 4.954142622209385 3.6167024524345384 4.940762621750645 3.629720731419262 Q 4.927382621291905 3.642739010403986 4.911890941227224 3.673021147857831 L 4.8938255245721605 3.66443973066258 M 5.282708936901785 3.673139823470538 Q 5.30768530499447 3.6252213402213918 5.323244678728993 3.5982926215554496 Q 5.338804052463516 3.571363902889508 5.348977475894392 3.554608263370346 Q 5.359150899325268 3.5378526238511845 5.369583987299254 3.522880961440915 Q 5.408267714063631 3.4670815951038407 5.447571793992846 3.453092695900618 Q 5.4868758739220596 3.4391037966973954 5.548885657589433 3.45306039834413 L 5.65174605402432 3.474243855221083 Q 5.695780679263086 3.4840902647231045 5.717899704529279 3.482972802744566 Q 5.740018729795473 3.481855340766028 5.7485550178774965 3.4615543115856955 Q 5.754945951660707 3.4457696365691293 5.750847558220445 3.431091313394842 Q 5.746749164780183 3.4164129902205547 5.736971481800293 3.3973762647787997 L 5.753343523857016 3.3885469817448906 Q 5.772334431617351 3.420816865885347 5.77758430601312 3.4482201288083756 Q 5.782834180408889 3.4756233917314043 5.765242275158624 3.5126574958742847 Q 5.749366653347408 3.5460785166861517 5.717480710953487 3.561930541088464 Q 5.685594768559565 3.5777825654907764 5.621778443226686 3.5629678221245165 L 5.522011801036593 3.539932694468829 Q 5.479309517490343 3.529612084993817 5.445922171371349 3.5264839674879576 Q 5.412534825252354 3.523355849982098 5.387479997637664 3.534149626577812 Q 5.362425170022974 3.5449434031735256 5.345262335632472 3.5810742364836523 L 5.298922682778114 3.678627486420995 L 5.282708936901785 3.673139823470538" fill="#64c6c4" fill-rule="nonzero"></path></g><g clip-path="url(#SvgjsClipPath1000)"><path d=" M 0 0.012962626880086758 L 3.914713317786211 0.012962626880086758 L 3.914713317786211 3.901750690906124 L 0 3.901750690906124 Z" fill="#0e0904" transform="matrix(1,0,0,1,0,0)" fill-rule="nonzero" mask="url(#maskedText)"></path></g><g><path d=" M -1.1125757078556042 1.9573566588931055 A 3.0699323667487097 3.0699323667487097 0 0 1 5.0272890256418155 1.9573566588931055 A 3.0699323667487097 3.0699323667487097 0 0 1 -1.112575707855604 1.9573566588931055 Z M -1.0625757078556044 1.9573566588931055 A 3.01993236674871 3.01993236674871 0 0 0 4.977289025641816 1.9573566588931055 A 3.01993236674871 3.01993236674871 0 0 0 -1.0625757078556042 1.9573566588931055 Z" fill="#212245" fill-rule="nonzero"></path></g><g><path d=" M -2.594675544152406 1.9573566588931057 A 4.552032203045512 4.552032203045512 0 0 1 6.509388861938618 1.9573566588931057 A 4.552032203045512 4.552032203045512 0 0 1 -2.5946755441524054 1.9573566588931057 Z M -2.544675544152406 1.9573566588931048 A 4.502032203045511 4.502032203045511 0 0 0 6.459388861938615 1.9573566588931048 A 4.502032203045511 4.502032203045511 0 0 0 -2.5446755441524065 1.9573566588931048 Z" fill="#212245" fill-rule="nonzero"></path></g><g transform="matrix(-0.10326484855369153,-0.9946538951078325,0.9946538951078325,-0.10326484855369153,-4.1655215809739,0.6987591861852376)"><g clip-path="url(#SvgjsClipPath1001)"><path d=" M -1.922049072529905 2.4124254497276625 L -1.613699693754043 2.4124254497276625 C -1.5832381959954223 2.4124254497276625 -1.563585688926457 2.389825849210421 -1.563585688926457 2.3621146738655936 C -1.563585688926457 2.3538614705897314 -1.5657456982368017 2.3454114962793864 -1.570070188926457 2.3375495990380073 L -1.7245399230643879 2.0616262979173174 C -1.7339737525471466 2.0445284602449036 -1.7508737011678361 2.0358812676931795 -1.7677758858230086 2.0358812676931795 C -1.784678070478181 2.0358812676931795 -1.8017747901333534 2.0445284602449036 -1.811208619616112 2.0616262979173174 L -1.9654815827195602 2.3375495990380073 C -1.9698051789954223 2.3456060312793867 -1.9721633009609396 2.3538614705897314 -1.9721633009609396 2.3621146738655936 C -1.9721633009609396 2.389825849210421 -1.9525107938919741 2.4124254497276625 -1.922049072529905 2.4124254497276625 Z" fill="#212245" transform="matrix(1,0,0,1,0,0)" fill-rule="nonzero"></path></g></g><g transform="matrix(0.10326484855369153,-0.9946538951078325,-0.9946538951078325,-0.10326484855369153,7.310884402615038,8.109194376974909)"><g clip-path="url(#SvgjsClipPath1002)"><path d=" M 5.528216016902323 2.4124254497276625 L 5.836565395678185 2.4124254497276625 C 5.8670268934368055 2.4124254497276625 5.886679400505771 2.389825849210421 5.886679400505771 2.3621146738655936 C 5.886679400505771 2.3538614705897314 5.884519391195426 2.3454114962793864 5.880194900505771 2.3375495990380073 L 5.72572516636784 2.0616262979173174 C 5.716291336885082 2.0445284602449036 5.699391388264392 2.0358812676931795 5.68248920360922 2.0358812676931795 C 5.665587018954047 2.0358812676931795 5.648490299298874 2.0445284602449036 5.639056469816116 2.0616262979173174 L 5.484783506712668 2.3375495990380073 C 5.480459910436806 2.3456060312793867 5.478101788471288 2.3538614705897314 5.478101788471288 2.3621146738655936 C 5.478101788471288 2.389825849210421 5.497754295540254 2.4124254497276625 5.528216016902323 2.4124254497276625 Z" fill="#212245" transform="matrix(1,0,0,1,0,0)" fill-rule="nonzero"></path></g></g></g><defs><clipPath id="SvgjsClipPath1000"><path d=" M 0 0 h 3.914713317786211 v 3.914713317786211 h -3.914713317786211 Z"></path></clipPath><mask id="maskedText"><path d=" M 3.914713317786211 1.9573566588931055 C 3.914713317786211 3.038374989778552 3.038374989778552 3.914713317786211 1.9573566588931055 3.914713317786211 C 0.8763383280076585 3.914713317786211 0 3.038374989778552 0 1.9573566588931055 C 0 0.8763383280076585 0.8763383280076585 0 1.9573566588931055 0 C 3.038374989778552 0 3.914713317786211 0.8763383280076585 3.914713317786211 1.9573566588931055 Z" fill="#ffffff" transform="matrix(1,0,0,1,0,0)" fill-rule="nonzero"></path><path d=" M 1.0200129028823444 2.134583214907628 L 1.0767107690995807 2.134583214907628 L 1.0767107690995807 1.7808616882491282 L 1.0200129028823444 1.7808616882491282 L 1.0200129028823444 1.6795371144286477 L 1.290333697298716 1.6802686997991927 C 1.3154514616874273 1.6802686997991927 1.3384354354120487 1.6847191774700079 1.3592856184725808 1.6936201328116387 C 1.3801358015331129 1.7025210881532693 1.3981206085590103 1.7145922467672614 1.4132400395502733 1.7298336086536152 C 1.4283594705415363 1.7450749705399693 1.4401258019178016 1.7628768812232305 1.4485390336790689 1.7832393407033993 C 1.4569522654403362 1.8036018001835679 1.46115888132097 1.8252445340621903 1.46115888132097 1.8481675423392665 C 1.46115888132097 1.8749923392592494 1.4564645418599729 1.8971837621657806 1.447075862937979 1.91474181105886 C 1.437687184015985 1.9322998599519399 1.424335751003539 1.9464438437824763 1.4070215639006411 1.9571737625504693 C 1.4253111981642657 1.968879128479189 1.4397600092325291 1.9833279395474523 1.4503679971054315 2.0005201957552594 C 1.4609759849783337 2.0177124519630665 1.466279978914785 2.038623600471144 1.466279978914785 2.063253641279492 C 1.466279978914785 2.088371405668203 1.4619514321390603 2.11141634484037 1.4532943385876114 2.132388458795993 C 1.4446372450361622 2.153360572751616 1.4328099482123517 2.1714673106726043 1.4178124481161796 2.186708672558958 C 1.4028149480200074 2.201950034445312 1.3850740027842916 2.2137773312691227 1.364589612409032 2.2221905630303898 C 1.3441052220337724 2.2306037947916573 1.322035730022332 2.234810410672291 1.2983811363747109 2.234810410672291 L 1.0200129028823444 2.234810410672291 L 1.0200129028823444 2.134583214907628 M 1.198153940610048 2.0054583970064384 L 1.198153940610048 2.134583214907628 L 1.290333697298716 2.134583214907628 C 1.2974056892139842 2.134583214907628 1.3040509229964345 2.1327542514812654 1.310269398646067 2.1290963246285406 C 1.3164878742956994 2.125438397775816 1.3218528336796957 2.1206221274197277 1.3263642767980566 2.114647513560277 C 1.3308757199164174 2.1086728997008266 1.3344726813215968 2.101722838680649 1.337155161013595 2.0937973304997453 C 1.3398376407055934 2.085871822318841 1.3411788805515925 2.0776414869002098 1.3411788805515925 2.069106324243852 C 1.3411788805515925 2.0600834380071302 1.3398376407055934 2.0517311716934086 1.337155161013595 2.044049525302686 C 1.3344726813215968 2.036367878911964 1.330814754468872 2.029661679681968 1.3261813804554203 2.023930927612699 C 1.3215480064419687 2.0182001755434302 1.3161220816104269 2.013688732425069 1.3099036059607945 2.010396598257617 C 1.303685130311162 2.0071044640901645 1.2971618274238026 2.0054583970064384 1.290333697298716 2.0054583970064384 L 1.198153940610048 2.0054583970064384 M 1.198153940610048 1.7808616882491282 L 1.198153940610048 1.9052312012417754 L 1.2852125997049013 1.9052312012417754 C 1.2920407298299876 1.9052312012417754 1.2985030672698017 1.9035241687105038 1.3045996120243433 1.9001101036479604 C 1.3106961567788848 1.8966960385854172 1.316000150715336 1.892123630019511 1.3205115938336967 1.8863928779502421 C 1.3250230369520575 1.880662125880973 1.3286199983572369 1.874199788441159 1.3313024780492353 1.8670058656308 C 1.3339849577412335 1.859811942820441 1.3353261975872326 1.8523131927723548 1.3353261975872326 1.8445096154865417 C 1.3353261975872326 1.8369498999909102 1.3339849577412335 1.8293901844952787 1.3313024780492353 1.8218304689996472 C 1.3286199983572369 1.8142707535040157 1.3250230369520575 1.8074426233789291 1.3205115938336967 1.8013460786243876 C 1.316000150715336 1.795249533869846 1.3106961567788848 1.7903113326186673 1.3045996120243433 1.7865314748708516 C 1.2985030672698017 1.782751617123036 1.2920407298299876 1.7808616882491282 1.2852125997049013 1.7808616882491282 L 1.198153940610048 1.7808616882491282" fill="NA" transform="matrix(1,0,0,1,0,0)" fill-rule="nonzero"></path><path d=" M 1.777935346766948 2.2446868131746482 C 1.752817582378237 2.2446868131746482 1.7287971960453432 2.2412727481121046 1.705874187768267 2.2344446179870183 C 1.6829511794911909 2.227616487861932 1.6615523074027503 2.217983947149756 1.6416775715029448 2.2055469958504914 C 1.6218028356031393 2.1931100445512266 1.6037570631296965 2.1781735099026 1.587540254082616 2.160737391904611 C 1.5713234450355353 2.1433012739066224 1.5574842884427262 2.1239142615871804 1.546022784304188 2.102576354946285 C 1.5345612801656499 2.0812384483053896 1.5256603248240193 2.0583764054758587 1.519319918279296 2.033990226457693 C 1.512979511734573 2.0096040474395265 1.5098093084622113 1.9841204903655427 1.5098093084622113 1.9575395552357417 C 1.5098093084622113 1.9309586201059408 1.512979511734573 1.9054140975844116 1.519319918279296 1.8809059876711547 C 1.5256603248240193 1.8563978777578978 1.5345612801656499 1.8334748694808214 1.546022784304188 1.8121369628399262 C 1.5574842884427262 1.7907990561990308 1.5713234450355353 1.7714120438795886 1.587540254082616 1.7539759258816 C 1.6037570631296965 1.736539807883611 1.6218028356031393 1.7216032732349844 1.6416775715029448 1.7091663219357196 C 1.6615523074027503 1.6967293706364548 1.6829511794911909 1.6870968299242792 1.705874187768267 1.6802686997991927 C 1.7287971960453432 1.6734405696741061 1.752817582378237 1.6700265046115628 1.777935346766948 1.6700265046115628 C 1.8030531111556591 1.6700265046115628 1.8271344629360984 1.6734405696741061 1.8501794021082654 1.6802686997991927 C 1.8732243412804324 1.6870968299242792 1.8946841788164186 1.6967293706364548 1.9145589147162239 1.7091663219357196 C 1.9344336506160293 1.7216032732349844 1.9524794230894722 1.736539807883611 1.9686962321365526 1.7539759258816 C 1.984913041183633 1.7714120438795886 1.9988131632239878 1.7907990561990308 2.010396598257617 1.8121369628399262 C 2.021980033291246 1.8334748694808214 2.030941954080422 1.8563978777578978 2.037282360625145 1.8809059876711547 C 2.043622767169868 1.9054140975844116 2.0467929704422296 1.9309586201059408 2.0467929704422296 1.9575395552357417 C 2.0467929704422296 1.983876628575361 2.043622767169868 2.0092992202017994 2.037282360625145 2.0338073301150565 C 2.030941954080422 2.0583154400283132 2.021980033291246 2.0812384483053896 2.010396598257617 2.102576354946285 C 1.9988131632239878 2.1239142615871804 1.984913041183633 2.1433012739066224 1.9686962321365526 2.160737391904611 C 1.9524794230894722 2.1781735099026 1.9344336506160293 2.1931100445512266 1.9145589147162239 2.2055469958504914 C 1.8946841788164186 2.217983947149756 1.8732243412804324 2.227616487861932 1.8501794021082654 2.2344446179870183 C 1.8271344629360984 2.2412727481121046 1.8030531111556591 2.2446868131746482 1.777935346766948 2.2446868131746482 M 1.777935346766948 2.1298279099990856 C 1.7991513225127527 2.1298279099990856 1.81859930027974 2.1252555014331795 1.8362792800679106 2.116110684301367 C 1.853959259856081 2.1069658671695546 1.8691396562948894 2.09452891587029 1.881820469384336 2.078799830403573 C 1.8945012824737824 2.063070744936856 1.9043167195285942 2.044781110673231 1.9112667805487715 2.023930927612699 C 1.918216841568949 2.0030807445521672 1.9216918720790375 1.9809502870931812 1.9216918720790375 1.9575395552357417 C 1.9216918720790375 1.9338849615881206 1.9181558761214035 1.9115716077864986 1.9110838842061353 1.8905994938308757 C 1.904011892290867 1.8696273798752527 1.8940745243409642 1.8512767801640828 1.8812717803564272 1.8355476946973657 C 1.8684690363718899 1.8198186092306483 1.8532886399330815 1.8073816579313837 1.835730591040002 1.7982368407995715 C 1.8181725421469221 1.789092023667759 1.798907460722571 1.784519615101853 1.777935346766948 1.784519615101853 C 1.7569632328113252 1.784519615101853 1.737698151386974 1.789092023667759 1.7201401024938943 1.7982368407995715 C 1.7025820536008147 1.8073816579313837 1.6874626226095517 1.8198186092306483 1.6747818095201052 1.8355476946973657 C 1.662100996430659 1.8512767801640828 1.6521636284807562 1.8696273798752527 1.6449697056703971 1.8905994938308757 C 1.637775782860038 1.9115716077864986 1.6341788214548587 1.9338849615881206 1.6341788214548587 1.9575395552357417 C 1.6341788214548587 1.9809502870931812 1.637775782860038 2.0030807445521672 1.6449697056703971 2.023930927612699 C 1.6521636284807562 2.044781110673231 1.662100996430659 2.063070744936856 1.6747818095201052 2.078799830403573 C 1.6874626226095517 2.09452891587029 1.7025820536008147 2.1069658671695546 1.7201401024938943 2.116110684301367 C 1.737698151386974 2.1252555014331795 1.7569632328113252 2.1298279099990856 1.777935346766948 2.1298279099990856" fill="NA" transform="matrix(1,0,0,1,0,0)" fill-rule="nonzero"></path><path d=" M 2.1195857148114556 2.134583214907628 L 2.171162483434877 2.134583214907628 L 2.171162483434877 1.7808616882491282 L 2.1195857148114556 1.7808616882491282 L 2.1195857148114556 1.6802686997991927 L 2.3478403504214906 1.6802686997991927 L 2.5113496807382947 2.0804458974872992 L 2.663153645126379 1.6802686997991927 L 2.894700414903866 1.6802686997991927 L 2.894700414903866 1.7808616882491282 L 2.843123646280445 1.7808616882491282 L 2.843123646280445 2.134583214907628 L 2.8939688295333212 2.134583214907628 L 2.8939688295333212 2.234810410672291 L 2.686564376983818 2.234810410672291 L 2.686564376983818 2.134583214907628 L 2.7246068162521575 2.134583214907628 L 2.7246068162521575 1.8156119933500148 L 2.558536937138446 2.228226142337386 L 2.4557491925768757 2.228226142337386 L 2.2867529719809845 1.8265857739081897 L 2.2867529719809845 2.134583214907628 L 2.328087545416776 2.134583214907628 L 2.328087545416776 2.234810410672291 L 2.1195857148114556 2.234810410672291 L 2.1195857148114556 2.134583214907628" fill="NA" transform="matrix(1,0,0,1,0,0)" fill-rule="nonzero"></path></mask><clipPath id="SvgjsClipPath1001"><path d=" M -2.0808207134092154 1.902877911796628 h 0.6260896551724137 v 0.64845 h -0.6260896551724137 Z"></path></clipPath><clipPath id="SvgjsClipPath1002"><path d=" M 5.369444376023012 1.902877911796628 h 0.6260896551724137 v 0.64845 h -0.6260896551724137 Z"></path></clipPath></defs></svg>